<?xml version="1.0" standalone="no"?>
<!DOCTYPE svg PUBLIC "-//W3C//DTD SVG 20010904//EN"
 "http://www.w3.org/TR/2001/REC-SVG-20010904/DTD/svg10.dtd">
<svg version="1.0" xmlns="http://www.w3.org/2000/svg"
 width="934.000000pt" height="590.000000pt" viewBox="0 0 934.000000 590.000000"
 preserveAspectRatio="xMidYMid meet">

<g transform="translate(0.000000,590.000000) scale(0.100000,-0.100000)"
fill="#000000" stroke="none">
<path d="M3782 5474 c-22 -39 11 -70 57 -53 17 7 22 15 19 36 -2 23 -8 29 -35
31 -21 2 -34 -2 -41 -14z"/>
<path d="M4026 5473 c-3 -3 -6 -15 -6 -25 0 -13 7 -18 25 -18 14 0 25 3 26 8
0 4 2 14 4 22 3 16 -36 26 -49 13z m29 -13 c3 -5 1 -10 -4 -10 -6 0 -11 5 -11
10 0 6 2 10 4 10 3 0 8 -4 11 -10z"/>
<path d="M5103 5469 c-17 -17 -4 -39 24 -39 20 0 24 4 21 22 -3 26 -28 34 -45
17z m32 -9 c3 -5 1 -10 -4 -10 -6 0 -11 5 -11 10 0 6 2 10 4 10 3 0 8 -4 11
-10z"/>
<path d="M5372 5455 c0 -16 2 -22 5 -12 2 9 2 23 0 30 -3 6 -5 -1 -5 -18z"/>
<path d="M5790 5450 c0 -25 4 -30 25 -30 21 0 25 5 25 30 0 25 -4 30 -25 30
-21 0 -25 -5 -25 -30z"/>
<path d="M4155 5461 c-3 -5 -1 -12 5 -16 5 -3 10 1 10 9 0 18 -6 21 -15 7z"/>
<path d="M5351 5444 c0 -11 3 -14 6 -6 3 7 2 16 -1 19 -3 4 -6 -2 -5 -13z"/>
<path d="M5541 5444 c0 -11 3 -14 6 -6 3 7 2 16 -1 19 -3 4 -6 -2 -5 -13z"/>
<path d="M5691 5444 c0 -11 3 -14 6 -6 3 7 2 16 -1 19 -3 4 -6 -2 -5 -13z"/>
<path d="M3450 5195 c0 -16 33 -121 40 -129 5 -5 17 18 26 50 l18 59 16 -52
c24 -81 23 -82 65 55 3 6 1 12 -4 12 -4 0 -15 -24 -23 -52 l-15 -53 -17 58
c-10 31 -19 57 -21 57 -3 0 -12 -25 -21 -56 -18 -61 -28 -59 -39 8 -4 21 -11
40 -16 44 -5 3 -9 2 -9 -1z"/>
<path d="M4493 5130 c0 -54 2 -64 6 -35 5 31 10 40 26 40 16 0 21 -9 26 -40
l6 -40 2 41 c1 48 -19 74 -43 55 -12 -10 -15 -7 -19 21 -2 18 -4 -1 -4 -42z"/>
<path d="M4703 5150 c0 -30 2 -43 4 -27 2 15 2 39 0 55 -2 15 -4 2 -4 -28z"/>
<path d="M3730 5141 c0 -61 7 -81 29 -80 10 0 11 2 4 6 -9 3 -13 26 -13 64 0
33 -4 59 -10 59 -5 0 -10 -22 -10 -49z"/>
<path d="M4334 5134 c0 -37 -5 -58 -14 -64 -8 -6 -10 -10 -4 -10 22 0 34 26
34 77 0 29 -3 53 -8 53 -4 0 -7 -25 -8 -56z"/>
<path d="M5741 5154 c-23 -27 -25 -54 -3 -62 8 -2 12 7 12 25 0 35 16 53 47
53 25 0 43 -26 43 -63 0 -31 -22 -51 -37 -36 -16 16 -37 1 -23 -16 17 -20 47
-6 70 32 20 34 20 36 3 57 -26 31 -35 36 -64 36 -15 0 -34 -10 -48 -26z"/>
<path d="M3646 5144 c-19 -18 -21 -55 -4 -72 7 -7 23 -11 38 -11 20 1 21 2 5
6 -42 11 -51 43 -22 81 14 17 1 15 -17 -4z"/>
<path d="M3808 5152 c-23 -5 -33 -44 -18 -71 10 -20 60 -31 60 -13 0 5 -10 8
-22 8 -19 -1 -24 5 -26 31 -3 28 0 32 25 35 18 2 22 5 13 9 -8 3 -23 4 -32 1z"/>
<path d="M3892 5153 c-42 -15 -32 -93 13 -93 18 0 28 7 35 26 15 39 -13 79
-48 67z m36 -52 c-2 -18 -9 -26 -23 -26 -24 0 -33 38 -14 61 17 21 41 -2 37
-35z"/>
<path d="M3993 5152 c-20 -3 -23 -10 -23 -48 0 -24 5 -44 10 -44 6 0 10 18 10
40 0 33 3 40 20 40 17 0 20 -7 21 -42 l2 -43 6 40 c4 27 12 41 24 43 14 3 17
-4 17 -37 0 -23 5 -41 10 -41 6 0 10 18 10 40 0 29 -5 42 -19 50 -13 7 -22 7
-26 0 -4 -6 -13 -7 -23 -2 -9 4 -27 6 -39 4z"/>
<path d="M4152 5153 c-42 -15 -32 -93 12 -93 14 0 27 4 30 8 2 4 -8 8 -22 7
-22 0 -28 5 -30 29 -2 16 2 32 9 37 15 9 42 -9 33 -22 -3 -5 0 -9 5 -9 6 0 11
7 11 15 0 17 -29 34 -48 28z"/>
<path d="M4613 5153 c-20 -4 -23 -11 -23 -49 0 -24 5 -44 10 -44 6 0 10 18 10
40 0 33 3 40 20 40 17 0 20 -7 20 -40 0 -22 5 -40 10 -40 16 0 12 67 -6 84 -8
9 -16 15 -17 15 -1 -1 -12 -4 -24 -6z"/>
<path d="M3687 5130 c3 -11 9 -20 14 -20 11 0 11 3 3 24 -9 23 -23 20 -17 -4z"/>
<path d="M4384 5123 c-9 -33 7 -58 36 -58 29 0 45 25 36 58 -5 22 -12 27 -36
27 -24 0 -31 -5 -36 -27z m61 -3 c6 -20 -9 -50 -26 -50 -14 0 -29 37 -23 54 9
23 41 20 49 -4z"/>
<path d="M4232 5060 c0 -14 2 -19 5 -12 2 6 2 18 0 25 -3 6 -5 1 -5 -13z"/>
<path d="M1577 5034 c-4 -4 -7 -18 -7 -31 0 -18 5 -23 26 -23 22 0 25 4 22 27
-3 27 -26 41 -41 27z m33 -29 c0 -8 -7 -15 -15 -15 -8 0 -15 7 -15 15 0 8 7
15 15 15 8 0 15 -7 15 -15z"/>
<path d="M2733 5033 c-31 -6 -33 -53 -3 -53 11 0 20 3 21 8 0 4 2 17 3 30 2
12 2 21 2 21 -1 -1 -11 -4 -23 -6z m7 -23 c0 -5 -4 -10 -10 -10 -5 0 -10 5
-10 10 0 6 5 10 10 10 6 0 10 -4 10 -10z"/>
<path d="M6375 5024 c-9 -9 -14 -23 -11 -31 3 -8 6 -17 6 -19 0 -2 14 -4 30
-4 26 0 30 3 30 29 0 17 -6 31 -16 35 -21 8 -20 8 -39 -10z"/>
<path d="M7493 5023 c-7 -3 -13 -13 -13 -24 0 -14 7 -19 25 -19 15 0 25 6 25
14 0 18 -22 35 -37 29z m21 -18 c3 -8 1 -15 -4 -15 -6 0 -10 7 -10 15 0 8 2
15 4 15 2 0 6 -7 10 -15z"/>
<path d="M3177 5000 c-4 -16 0 -20 16 -19 12 0 16 3 9 6 -6 2 -10 9 -7 13 3 5
1 11 -4 14 -5 3 -11 -3 -14 -14z"/>
<path d="M6570 5000 c0 -13 7 -20 19 -20 23 0 35 15 25 31 -4 8 -9 7 -15 -2
-6 -10 -9 -11 -9 -1 0 6 -4 12 -10 12 -5 0 -10 -9 -10 -20z"/>
<path d="M8070 4995 c0 -18 5 -25 20 -25 15 0 20 7 20 25 0 18 -5 25 -20 25
-15 0 -20 -7 -20 -25z"/>
<path d="M6685 5000 c3 -5 8 -10 11 -10 2 0 4 5 4 10 0 6 -5 10 -11 10 -5 0
-7 -4 -4 -10z"/>
<path d="M3982 4930 c0 -19 2 -27 5 -17 2 9 2 25 0 35 -3 9 -5 1 -5 -18z"/>
<path d="M3782 4920 c0 -14 2 -19 5 -12 2 6 2 18 0 25 -3 6 -5 1 -5 -13z"/>
<path d="M4032 4920 c0 -14 2 -19 5 -12 2 6 2 18 0 25 -3 6 -5 1 -5 -13z"/>
<path d="M4102 4910 c0 -19 2 -27 5 -17 2 9 2 25 0 35 -3 9 -5 1 -5 -18z"/>
<path d="M4152 4920 c0 -14 2 -19 5 -12 2 6 2 18 0 25 -3 6 -5 1 -5 -13z"/>
<path d="M4051 4914 c0 -11 3 -14 6 -6 3 7 2 16 -1 19 -3 4 -6 -2 -5 -13z"/>
<path d="M4081 4914 c0 -11 3 -14 6 -6 3 7 2 16 -1 19 -3 4 -6 -2 -5 -13z"/>
<path d="M4131 4914 c0 -11 3 -14 6 -6 3 7 2 16 -1 19 -3 4 -6 -2 -5 -13z"/>
<path d="M3510 4900 c-9 -6 -10 -10 -3 -10 6 0 15 5 18 10 8 12 4 12 -15 0z"/>
<path d="M7945 4848 c-32 -18 -35 -28 -35 -118 0 -47 4 -90 8 -96 15 -23 53
-34 122 -34 62 0 74 3 95 25 22 22 25 32 25 105 0 73 -3 83 -25 105 -21 22
-33 25 -97 25 -40 0 -82 -6 -93 -12z m128 -108 c-4 -15 -14 -20 -39 -20 -19 0
-34 2 -34 4 0 2 -3 11 -6 20 -5 13 2 16 39 16 40 0 45 -2 40 -20z m-26 -36
c-3 -3 -12 -4 -19 -1 -8 3 -5 6 6 6 11 1 17 -2 13 -5z"/>
<path d="M1194 4755 c22 -89 28 -105 36 -100 6 4 10 14 10 23 0 14 -2 14 -9 3
-6 -10 -11 -2 -15 25 -4 22 -12 46 -17 54 -8 12 -9 11 -5 -5z"/>
<path d="M1250 4755 c0 -8 5 -15 10 -15 6 0 10 -8 10 -17 1 -10 7 -31 14 -48
l13 -30 16 57 c22 74 20 88 -3 19 l-17 -55 -13 52 c-11 48 -30 71 -30 37z"/>
<path d="M1432 4713 c-2 -54 0 -63 16 -63 11 0 13 3 5 8 -6 4 -13 32 -16 62
l-3 55 -2 -62z"/>
<path d="M1930 4710 l0 -61 32 3 c65 6 65 110 0 116 l-32 3 0 -61z m62 25 c15
-33 -3 -75 -32 -75 -17 0 -20 6 -20 50 0 44 3 50 20 50 12 0 25 -10 32 -25z"/>
<path d="M2134 4748 c-7 -22 16 -48 43 -48 7 0 13 -10 13 -21 0 -18 -5 -21
-29 -17 -17 2 -28 1 -25 -4 10 -16 53 -8 64 12 9 18 6 23 -25 41 -40 24 -41
44 -2 44 15 -1 27 3 27 7 0 4 -13 8 -29 8 -22 0 -32 -6 -37 -22z"/>
<path d="M2312 4713 c-2 -54 0 -63 16 -63 11 0 13 3 5 8 -6 4 -13 32 -16 62
l-3 55 -2 -62z"/>
<path d="M2573 4725 c0 -27 2 -38 4 -22 2 15 2 37 0 50 -2 12 -4 0 -4 -28z"/>
<path d="M3130 4738 c-21 -23 -27 -58 -10 -58 6 0 10 10 10 23 0 46 50 65 70
26 6 -11 8 -33 5 -50 -6 -25 -10 -28 -32 -23 -19 5 -24 3 -21 -6 8 -24 27 -22
53 6 31 33 31 47 3 79 -27 31 -51 32 -78 3z"/>
<path d="M1555 4724 c-28 -28 -15 -74 20 -74 26 0 40 28 30 59 -8 26 -31 33
-50 15z m45 -33 c-1 -17 -20 -33 -34 -28 -19 8 -21 38 -4 55 10 10 15 9 25 -5
7 -9 13 -19 13 -22z"/>
<path d="M2369 4729 c-11 -8 -10 -9 5 -7 27 4 30 -15 4 -27 -28 -12 -30 -39
-3 -43 18 -3 19 -2 2 8 -19 12 -14 30 8 30 7 0 16 -10 18 -22 2 -13 5 -4 6 18
1 44 -14 60 -40 43z"/>
<path d="M2458 4733 c-14 -4 -18 -14 -16 -46 l1 -42 4 38 c6 50 35 48 44 -3
l6 -35 2 38 c1 25 6 37 15 37 10 0 16 -13 19 -37 l4 -38 1 43 c2 40 0 43 -20
41 -13 -2 -27 -1 -33 2 -5 3 -18 4 -27 2z"/>
<path d="M1241 4714 c0 -11 3 -14 6 -6 3 7 2 16 -1 19 -3 4 -6 -2 -5 -13z"/>
<path d="M1344 4705 c-8 -31 11 -55 40 -54 19 1 19 2 -3 8 -38 10 -38 31 -1
31 25 0 31 3 26 16 -3 9 -6 18 -6 20 0 2 -5 4 -11 4 -8 0 -8 -5 1 -15 11 -13
8 -15 -15 -15 -23 0 -26 2 -15 15 8 10 9 15 1 15 -6 0 -13 -11 -17 -25z"/>
<path d="M1475 4710 c-11 -35 3 -60 33 -59 23 2 24 2 5 6 -23 5 -41 40 -26 53
4 4 17 10 28 13 15 4 14 5 -7 6 -18 1 -29 -5 -33 -19z"/>
<path d="M1631 4688 c2 -43 2 -43 8 -8 9 51 38 53 44 3 l4 -38 1 38 c2 31 6
38 20 35 10 -2 19 -16 24 -38 l6 -35 -1 40 -2 40 -52 3 -53 3 1 -43z"/>
<path d="M1764 4716 c-3 -8 -4 -25 -2 -38 2 -18 10 -23 33 -25 27 -2 28 -1 6
5 -34 10 -39 32 -7 32 19 0 26 5 26 20 0 11 -4 20 -10 20 -5 0 -7 -7 -4 -15 4
-11 0 -15 -16 -15 -19 0 -20 2 -10 15 9 11 9 15 1 15 -6 0 -14 -6 -17 -14z"/>
<path d="M2035 4690 c0 -22 3 -40 8 -40 4 0 7 15 7 34 0 19 6 37 13 39 6 3 3
6 -8 6 -17 1 -20 -5 -20 -39z"/>
<path d="M2224 4705 c-8 -31 11 -55 40 -54 19 1 19 2 -3 8 -38 10 -38 31 -1
31 25 0 31 3 26 16 -3 9 -6 18 -6 20 0 2 -5 4 -11 4 -8 0 -8 -5 1 -15 11 -13
8 -15 -15 -15 -23 0 -26 2 -15 15 8 10 9 15 1 15 -6 0 -13 -11 -17 -25z"/>
<path d="M1846 4645 c4 -8 8 -15 10 -15 2 0 4 7 4 15 0 8 -4 15 -10 15 -5 0
-7 -7 -4 -15z"/>
<path d="M1392 4525 c0 -16 2 -22 5 -12 2 9 2 23 0 30 -3 6 -5 -1 -5 -18z"/>
<path d="M8080 4411 c0 -37 19 -71 40 -71 21 0 40 34 40 71 0 39 0 39 -40 39
-40 0 -40 0 -40 -39z"/>
<path d="M4226 4389 c5 -8 -1 -10 -19 -5 -19 4 -33 -1 -56 -20 -40 -33 -40
-48 -1 -40 18 3 30 1 30 -5 0 -5 13 -15 30 -20 16 -6 32 -19 35 -30 4 -10 14
-19 23 -19 11 0 13 -3 5 -11 -13 -13 -40 -15 -75 -6 -24 6 -26 10 -18 37 8 27
6 30 -15 30 -17 0 -25 -6 -27 -22 -2 -13 -9 -22 -15 -21 -6 1 -13 -7 -16 -18
-4 -14 -1 -19 7 -16 10 4 12 -5 8 -39 -4 -42 7 -59 23 -33 4 6 22 8 45 4 32
-5 39 -3 43 12 4 16 5 16 6 1 0 -10 11 -20 24 -22 12 -2 42 -8 67 -13 41 -7
45 -11 51 -43 4 -19 7 -28 8 -19 0 9 8 30 16 45 17 33 19 54 6 54 -5 0 -12 -6
-14 -12 -11 -26 -6 18 7 76 8 33 12 66 9 75 -11 30 -57 71 -79 71 -13 0 -26 5
-29 10 -3 6 -24 10 -46 10 -28 0 -38 -4 -33 -11z m-41 -39 c-3 -5 -10 -10 -16
-10 -5 0 -9 5 -9 10 0 6 7 10 16 10 8 0 12 -4 9 -10z"/>
<path d="M3655 4341 c-60 -37 -76 -66 -106 -183 -29 -110 -29 -114 -13 -167
16 -54 15 -56 -6 -73 -12 -10 -38 -18 -57 -18 -21 0 -32 -4 -28 -10 4 -7 24
-9 48 -5 60 8 69 -1 53 -55 -14 -48 -27 -225 -15 -213 4 5 9 49 11 98 5 103
37 183 88 223 l29 23 7 -38 c5 -30 53 -138 72 -163 5 -7 21 22 32 61 6 23 18
39 30 42 13 3 20 14 20 29 0 12 4 29 9 37 7 12 14 10 36 -8 15 -11 37 -21 49
-21 21 0 106 40 106 51 0 3 -8 14 -18 25 -42 44 -54 73 -48 108 4 22 1 46 -8
68 -9 18 -20 52 -26 75 -13 52 -53 101 -97 119 -47 20 -132 18 -168 -5z m130
-83 c14 -6 26 -14 26 -17 7 -34 6 -61 -1 -61 -5 0 -18 -10 -29 -22 -30 -31
-10 -51 41 -43 37 7 38 6 38 -24 0 -32 -13 -39 -40 -21 -10 6 -22 4 -37 -5
-16 -11 -29 -12 -48 -5 -20 8 -30 7 -41 -5 -22 -21 -33 -19 -44 11 -18 45 -13
51 32 48 75 -5 90 41 17 52 -37 6 -55 24 -25 24 9 0 13 7 11 18 -5 29 25 59
62 61 7 1 24 -4 38 -11z m-105 -114 c0 -2 -7 -4 -15 -4 -8 0 -15 4 -15 10 0 5
7 7 15 4 8 -4 15 -8 15 -10z m120 -127 c0 -14 -27 -37 -44 -37 -8 0 -20 9 -26
19 -8 16 -6 20 13 23 39 6 57 4 57 -5z m-102 -22 c-3 -3 -9 2 -12 12 -6 14 -5
15 5 6 7 -7 10 -15 7 -18z m81 -31 c25 -5 29 -9 20 -20 -14 -17 -43 -18 -70
-4 -43 24 -15 37 50 24z"/>
<path d="M6635 4350 c3 -5 8 -10 11 -10 2 0 4 5 4 10 0 6 -5 10 -11 10 -5 0
-7 -4 -4 -10z"/>
<path d="M6621 4333 c-1 -6 -4 -20 -7 -30 -5 -17 -5 -17 6 0 6 10 9 23 6 30
-3 9 -5 9 -5 0z"/>
<path d="M6685 4331 c-3 -6 3 -14 12 -20 16 -9 16 -12 3 -21 -9 -6 -10 -10 -3
-10 20 0 27 22 10 35 -9 7 -14 15 -10 18 3 4 4 7 0 7 -3 0 -8 -4 -12 -9z"/>
<path d="M6730 4303 c0 -25 3 -33 9 -25 4 8 11 13 15 13 20 -3 26 1 26 18 0
11 -4 22 -8 25 -5 3 -8 -4 -8 -14 1 -11 -3 -19 -9 -19 -5 0 -10 9 -9 19 0 11
-3 20 -8 20 -4 0 -8 -17 -8 -37z"/>
<path d="M6820 4315 c0 -14 2 -25 4 -25 2 0 6 11 8 25 3 14 1 25 -3 25 -5 0
-9 -11 -9 -25z"/>
<path d="M6862 4315 c0 -16 2 -22 5 -12 2 9 2 23 0 30 -3 6 -5 -1 -5 -18z"/>
<path d="M6881 4313 c2 -23 2 -24 6 -5 5 27 30 29 36 2 4 -17 4 -16 3 2 -1 16
-8 24 -23 26 -20 3 -23 -1 -22 -25z"/>
<path d="M6650 4316 c0 -8 4 -17 9 -20 5 -4 7 3 4 14 -6 23 -13 26 -13 6z"/>
<path d="M4113 4295 c0 -8 4 -15 9 -15 4 0 8 4 8 9 0 6 -4 12 -8 15 -5 3 -9
-1 -9 -9z"/>
<path d="M6375 4270 c3 -5 8 -10 11 -10 2 0 4 5 4 10 0 6 -5 10 -11 10 -5 0
-7 -4 -4 -10z"/>
<path d="M6257 4198 c-6 -18 5 -42 21 -46 8 -1 11 2 7 8 -3 5 -1 10 5 10 6 0
8 5 5 10 -3 6 2 10 12 10 15 0 16 2 3 10 -21 14 -47 12 -53 -2z"/>
<path d="M6359 4187 c6 -14 7 -27 4 -30 -3 -3 4 -5 14 -4 30 2 26 51 -5 55
-20 3 -21 1 -13 -21z"/>
<path d="M6741 4194 c0 -11 3 -14 6 -6 3 7 2 16 -1 19 -3 4 -6 -2 -5 -13z"/>
<path d="M4430 4075 c0 -54 1 -55 28 -55 37 0 52 17 52 57 0 34 -21 53 -59 53
-19 0 -21 -6 -21 -55z m58 33 c25 -25 8 -78 -25 -78 -9 0 -13 15 -13 45 0 46
13 58 38 33z"/>
<path d="M4631 4073 c1 -32 4 -48 6 -35 5 28 29 29 43 1 7 -11 14 -18 17 -16
2 3 0 14 -6 26 -7 13 -8 22 -1 26 16 10 12 42 -6 49 -45 17 -54 9 -53 -51z
m48 34 c13 -16 5 -27 -21 -27 -18 0 -25 20 -11 33 10 10 19 8 32 -6z"/>
<path d="M4801 4078 c-1 -55 0 -58 24 -58 32 0 50 32 35 60 -8 14 -17 19 -30
15 -14 -4 -20 0 -23 17 -2 13 -5 -3 -6 -34z m49 -24 c0 -27 -24 -33 -34 -8 -7
19 12 47 25 38 5 -3 9 -16 9 -30z"/>
<path d="M4964 4081 c1 -39 5 -56 16 -59 12 -4 13 -2 3 9 -6 8 -14 35 -16 59
-4 39 -4 38 -3 -9z"/>
<path d="M5053 4075 c-12 -30 -17 -55 -13 -55 4 0 10 7 14 15 7 20 43 19 55
-2 5 -10 12 -16 14 -13 7 7 -33 110 -42 110 -5 0 -17 -25 -28 -55z m40 5 c4
-15 0 -20 -13 -20 -13 0 -17 5 -13 20 3 11 9 20 13 20 4 0 10 -9 13 -20z"/>
<path d="M5142 4078 c2 -28 8 -53 13 -55 6 -2 9 18 7 52 -2 30 -8 55 -13 55
-6 0 -9 -23 -7 -52z"/>
<path d="M5618 4104 c-4 -17 -3 -44 2 -60 l8 -29 1 33 c1 43 31 45 31 2 0 -16
5 -30 10 -30 12 0 13 50 1 69 -5 8 -16 11 -24 8 -11 -4 -17 1 -19 16 -3 18 -5
16 -10 -9z"/>
<path d="M4539 4086 c-6 -46 -5 -57 2 -62 5 -3 9 9 9 25 0 17 5 31 10 31 6 0
10 4 10 8 0 13 -30 10 -31 -2z"/>
<path d="M4732 4091 c-8 -5 -12 -21 -10 -37 2 -23 8 -29 28 -29 20 0 26 6 28
29 3 25 -10 46 -28 46 -3 0 -11 -4 -18 -9z m35 -45 c-4 -9 -11 -16 -17 -16
-15 0 -24 26 -16 47 6 15 8 15 23 1 9 -9 13 -24 10 -32z"/>
<path d="M4890 4086 c-6 -8 -10 -25 -8 -38 2 -18 10 -23 33 -25 20 -1 23 0 8
4 -28 6 -30 23 -3 23 24 0 28 35 4 44 -21 8 -20 8 -34 -8z m40 -17 c0 -5 -7
-9 -15 -9 -15 0 -20 12 -9 23 8 8 24 -1 24 -14z"/>
<path d="M5188 4075 c-13 -30 3 -56 36 -54 20 2 20 2 -1 6 -28 5 -30 23 -4 23
26 0 36 17 21 35 -18 22 -39 18 -52 -10z m42 -6 c0 -5 -7 -9 -15 -9 -15 0 -20
12 -9 23 8 8 24 -1 24 -14z"/>
<path d="M5278 4092 c-13 -2 -18 -13 -18 -38 0 -43 18 -45 22 -1 4 41 21 38
29 -5 l6 -33 2 33 c1 43 31 45 31 2 0 -16 5 -30 10 -30 14 0 12 57 -2 67 -14
9 -54 11 -80 5z"/>
<path d="M5395 4090 c-4 -7 0 -10 10 -8 10 2 20 -3 22 -9 3 -8 -4 -13 -16 -13
-14 0 -21 -6 -21 -20 0 -15 7 -20 26 -20 23 0 25 3 22 37 -3 38 -28 57 -43 33z
m30 -50 c-3 -5 -10 -10 -16 -10 -5 0 -9 5 -9 10 0 6 7 10 16 10 8 0 12 -4 9
-10z"/>
<path d="M5466 4078 c4 -13 10 -39 13 -58 l6 -35 22 52 c12 28 19 54 15 57 -3
4 -11 -6 -18 -21 l-12 -28 -11 28 c-13 32 -26 37 -15 5z"/>
<path d="M5542 4083 c-15 -27 3 -63 30 -62 23 0 23 0 -2 12 l-25 11 28 4 c29
4 35 20 15 40 -17 17 -36 15 -46 -5z m38 -13 c0 -5 -7 -10 -15 -10 -8 0 -15 5
-15 10 0 6 7 10 15 10 8 0 15 -4 15 -10z"/>
<path d="M5703 4065 c2 -36 5 -40 30 -43 26 -3 27 -1 27 38 0 25 -4 39 -10 35
-5 -3 -10 -20 -10 -36 0 -42 -23 -33 -32 12 -6 34 -6 34 -5 -6z"/>
<path d="M6961 4064 c0 -11 3 -14 6 -6 3 7 2 16 -1 19 -3 4 -6 -2 -5 -13z"/>
<path d="M7281 4064 c0 -11 3 -14 6 -6 3 7 2 16 -1 19 -3 4 -6 -2 -5 -13z"/>
<path d="M7321 4064 c0 -11 3 -14 6 -6 3 7 2 16 -1 19 -3 4 -6 -2 -5 -13z"/>
<path d="M7741 4064 c0 -11 3 -14 6 -6 3 7 2 16 -1 19 -3 4 -6 -2 -5 -13z"/>
<path d="M7781 4064 c0 -11 3 -14 6 -6 3 7 2 16 -1 19 -3 4 -6 -2 -5 -13z"/>
<path d="M7892 4060 c0 -14 2 -19 5 -12 2 6 2 18 0 25 -3 6 -5 1 -5 -13z"/>
<path d="M1612 4058 c-17 -17 -15 -58 4 -65 8 -3 20 -1 26 5 7 7 4 10 -8 9
-13 -1 -20 6 -22 22 -3 21 -1 23 22 17 30 -7 34 -1 8 13 -13 7 -23 6 -30 -1z"/>
<path d="M1673 4030 c0 -25 2 -35 4 -22 2 12 2 32 0 45 -2 12 -4 2 -4 -23z"/>
<path d="M1191 4023 c1 -21 3 -30 6 -20 2 9 13 17 24 17 12 0 19 7 19 20 0 15
-7 20 -25 20 -22 0 -25 -4 -24 -37z m39 17 c0 -5 -7 -10 -15 -10 -8 0 -15 5
-15 10 0 6 7 10 15 10 8 0 15 -4 15 -10z"/>
<path d="M1312 4028 c2 -17 8 -33 14 -35 6 -2 8 10 6 32 -5 44 -24 47 -20 3z"/>
<path d="M1488 4055 c-6 -7 3 -65 11 -65 7 0 7 58 -1 65 -2 3 -7 3 -10 0z"/>
<path d="M1828 4054 c-8 -11 -3 -52 7 -62 9 -10 11 2 5 38 -3 19 -8 30 -12 24z"/>
<path d="M1264 4038 c-4 -7 -3 -8 4 -4 8 5 12 -1 11 -16 0 -13 -3 -17 -6 -10
-2 6 -9 10 -14 6 -14 -8 0 -24 22 -24 13 0 19 7 19 24 0 26 -25 42 -36 24z"/>
<path d="M1381 4040 c-19 -11 -9 -44 14 -48 11 -2 16 0 10 5 -5 4 -11 17 -12
28 -1 11 0 14 3 8 6 -15 24 -17 24 -4 0 13 -25 20 -39 11z"/>
<path d="M1459 4018 c4 -28 6 -29 9 -9 2 13 0 27 -5 32 -6 6 -7 -3 -4 -23z"/>
<path d="M1525 4039 c-4 -6 1 -17 11 -25 18 -15 18 -15 -1 -9 -16 5 -18 4 -7
-6 9 -10 15 -10 24 -1 9 9 8 15 -8 28 -17 14 -17 15 -1 10 11 -3 16 -2 12 4
-8 13 -22 13 -30 -1z"/>
<path d="M1699 4018 c4 -28 6 -29 9 -9 2 13 0 27 -5 32 -6 6 -7 -3 -4 -23z"/>
<path d="M1734 4039 c-4 -7 -3 -9 3 -6 6 4 13 0 17 -8 3 -8 1 -17 -4 -20 -6
-4 -10 -1 -10 5 0 6 -5 8 -10 5 -15 -9 -2 -25 21 -25 16 0 20 6 17 27 -3 29
-22 41 -34 22z"/>
<path d="M1793 4043 c-7 -3 -13 -17 -13 -31 l0 -27 15 29 c17 32 16 36 -2 29z"/>
<path d="M1340 4021 c0 -11 5 -23 10 -26 6 -4 10 5 10 19 0 14 -4 26 -10 26
-5 0 -10 -9 -10 -19z"/>
<path d="M1432 4015 c0 -16 2 -22 5 -12 2 9 2 23 0 30 -3 6 -5 -1 -5 -18z"/>
<path d="M6360 4025 c-11 -13 -7 -15 26 -14 22 0 32 3 24 6 -8 3 -20 10 -26
14 -7 6 -16 3 -24 -6z"/>
<path d="M4081 3985 c-31 -36 -51 -115 -34 -138 5 -6 15 -31 23 -54 7 -23 19
-44 27 -47 8 -3 11 -10 8 -16 -10 -16 -41 21 -60 73 -10 26 -21 47 -25 47 -4
0 -13 12 -20 28 l-13 27 -8 -28 c-4 -16 -5 -36 -2 -45 5 -12 2 -14 -11 -9 -9
4 -15 3 -12 -1 2 -4 -3 -26 -13 -47 -17 -38 -18 -115 -2 -115 4 0 12 12 18 28
7 15 17 34 22 42 5 8 12 24 16 35 6 19 8 18 21 -8 8 -15 12 -32 9 -37 -3 -6
-1 -10 6 -10 22 0 -22 -39 -58 -51 -45 -15 -61 -7 -69 35 -9 51 -21 44 -34
-19 -11 -51 -14 -55 -33 -49 -12 3 -26 10 -31 15 -12 11 -36 12 -36 1 0 -7 29
-25 61 -37 9 -4 21 -24 28 -44 15 -51 15 -51 -15 -51 -14 0 -23 -4 -19 -10 3
-5 2 -10 -4 -10 -6 0 -18 -9 -28 -19 -10 -10 -27 -20 -38 -23 -44 -8 -23 -146
27 -177 16 -10 30 -10 71 1 39 10 51 10 54 1 3 -9 76 -12 288 -13 l283 0 6 23
c3 12 6 38 6 57 0 48 14 68 34 51 12 -10 20 -9 41 5 l26 17 -4 151 c-8 257
-28 308 -148 371 -39 20 -73 43 -76 51 -4 10 -14 7 -41 -16 -30 -24 -46 -30
-86 -30 -44 0 -53 4 -87 40 l-38 39 -30 -34z m7 -116 c-3 -8 -7 -3 -11 10 -4
17 -3 21 5 13 5 -5 8 -16 6 -23z m41 -36 c1 20 14 22 30 4 8 -11 6 -16 -12
-24 -30 -14 -52 -1 -42 23 7 18 8 18 15 -1 7 -17 9 -17 9 -2z m61 -37 c0 -3
-4 -8 -10 -11 -5 -3 -10 -1 -10 4 0 6 5 11 10 11 6 0 10 -2 10 -4z m303 -121
c10 -14 13 -25 7 -25 -6 0 -15 -11 -20 -25 -5 -14 -14 -25 -20 -25 -6 0 -8 5
-5 10 4 6 -7 10 -24 10 -24 0 -31 4 -31 20 0 11 5 20 10 20 6 0 10 8 10 18 0
14 2 14 9 3 15 -23 44 -23 38 0 -7 26 4 23 26 -6z m-403 3 c0 -19 -30 -101
-42 -115 -18 -23 -41 -16 -33 10 3 12 9 33 12 47 9 42 63 91 63 58z m140 2 c0
-5 -5 -10 -11 -10 -5 0 -7 5 -4 10 3 6 8 10 11 10 2 0 4 -4 4 -10z m65 -130
c-3 -5 -12 -10 -18 -10 -7 0 -6 4 3 10 19 12 23 12 15 0z m-35 -10 c0 -10 -50
-19 -69 -12 -12 4 -11 7 5 12 26 10 64 9 64 0z"/>
<path d="M6751 3954 c0 -11 3 -14 6 -6 3 7 2 16 -1 19 -3 4 -6 -2 -5 -13z"/>
<path d="M6922 3950 c0 -14 2 -19 5 -12 2 6 2 18 0 25 -3 6 -5 1 -5 -13z"/>
<path d="M6992 3950 c0 -14 2 -19 5 -12 2 6 2 18 0 25 -3 6 -5 1 -5 -13z"/>
<path d="M7032 3950 c0 -14 2 -19 5 -12 2 6 2 18 0 25 -3 6 -5 1 -5 -13z"/>
<path d="M7052 3950 c0 -14 2 -19 5 -12 2 6 2 18 0 25 -3 6 -5 1 -5 -13z"/>
<path d="M5067 3883 c-4 -3 -7 -24 -7 -45 0 -30 4 -38 18 -38 24 0 38 11 46
36 10 33 -35 70 -57 47z m38 -39 c0 -19 -5 -29 -15 -29 -16 0 -25 28 -16 51
10 25 31 10 31 -22z"/>
<path d="M5397 3868 c-3 -8 -3 -26 0 -41 5 -23 9 -26 42 -24 31 2 36 5 36 27
0 33 -38 36 -43 3 -2 -13 -8 -23 -14 -23 -6 0 -8 11 -6 24 6 29 -6 56 -15 34z
m71 -35 c-4 -22 -22 -20 -26 1 -2 10 3 16 13 16 10 0 15 -7 13 -17z"/>
<path d="M5490 3856 c0 -13 3 -31 6 -40 11 -29 20 -16 16 24 -4 43 -22 56 -22
16z"/>
<path d="M5739 3869 c-2 -24 2 -54 10 -61 3 -4 6 9 5 28 -2 35 -13 60 -15 33z"/>
<path d="M1250 3856 c0 -2 7 -7 16 -10 8 -3 12 -2 9 4 -6 10 -25 14 -25 6z"/>
<path d="M1290 3830 c0 -22 5 -30 18 -29 10 0 12 3 5 6 -7 2 -13 13 -13 23 0
10 6 21 13 23 7 3 5 6 -5 6 -13 1 -18 -7 -18 -29z"/>
<path d="M5147 3854 c-13 -13 -7 -42 9 -48 26 -10 29 -7 8 9 -18 14 -18 14 4
15 14 0 22 5 20 13 -5 14 -31 21 -41 11z m30 -10 c-3 -3 -12 -4 -19 -1 -8 3
-5 6 6 6 11 1 17 -2 13 -5z"/>
<path d="M5201 3828 c2 -28 2 -29 6 -8 3 14 10 28 17 32 7 5 5 8 -6 8 -14 0
-18 -8 -17 -32z"/>
<path d="M5241 3828 c2 -31 2 -31 6 -5 5 31 23 37 23 7 0 -11 5 -20 10 -20 6
0 10 9 10 20 0 30 18 24 23 -7 4 -26 4 -26 6 5 1 31 0 32 -39 32 -39 0 -40 -1
-39 -32z"/>
<path d="M5354 3851 c19 -7 19 -8 -2 -13 -27 -7 -20 -37 9 -35 14 1 19 9 19
29 0 23 -4 28 -22 27 -21 0 -22 -1 -4 -8z m16 -25 c0 -3 -4 -8 -10 -11 -5 -3
-10 -1 -10 4 0 6 5 11 10 11 6 0 10 -2 10 -4z"/>
<path d="M5526 3843 c-4 -9 0 -23 9 -32 13 -14 17 -14 30 0 19 19 10 49 -15
49 -10 0 -21 -8 -24 -17z m34 -13 c0 -11 -4 -20 -10 -20 -5 0 -10 9 -10 20 0
11 5 20 10 20 6 0 10 -9 10 -20z"/>
<path d="M5590 3835 c0 -23 9 -30 35 -26 6 1 1 -6 -10 -15 l-20 -16 20 4 c15
2 21 12 23 41 3 34 1 37 -22 37 -21 0 -26 -5 -26 -25z m32 0 c0 -5 -5 -11 -11
-13 -6 -2 -11 4 -11 13 0 9 5 15 11 13 6 -2 11 -8 11 -13z"/>
<path d="M5652 3830 c0 -19 2 -27 5 -17 2 9 2 25 0 35 -3 9 -5 1 -5 -18z"/>
<path d="M5680 3845 c0 -8 7 -15 15 -15 8 0 15 -5 15 -11 0 -6 -7 -9 -15 -5
-8 3 -15 1 -15 -4 0 -14 27 -12 36 2 4 6 -1 17 -10 24 -16 12 -16 13 1 17 14
4 14 5 -4 6 -14 1 -23 -5 -23 -14z"/>
<path d="M1260 3810 c-9 -6 -10 -10 -3 -10 6 0 15 5 18 10 8 12 4 12 -15 0z"/>
<path d="M3921 3784 c0 -11 3 -14 6 -6 3 7 2 16 -1 19 -3 4 -6 -2 -5 -13z"/>
<path d="M5112 3707 c-17 -18 -22 -36 -22 -79 0 -118 -1 -118 345 -118 l277 0
29 29 c25 26 29 37 29 86 0 46 -4 60 -25 80 l-24 25 -294 0 -294 0 -21 -23z
m183 -57 c3 -5 -2 -10 -12 -10 -17 -1 -17 -1 0 -11 13 -8 22 -7 32 1 8 6 19 9
25 5 6 -4 10 -3 9 2 -4 21 3 22 23 4 16 -15 25 -18 34 -10 7 6 18 8 23 4 6 -3
20 -1 32 6 17 9 23 8 30 -2 5 -8 9 -9 10 -4 0 6 5 -1 9 -15 8 -25 8 -25 9 -2
1 13 6 20 11 17 6 -3 10 -1 10 4 0 6 5 11 10 11 6 0 10 -15 10 -32 0 -33 0
-33 -50 -32 -27 1 -57 7 -67 15 -9 8 -14 9 -10 2 10 -15 -12 -28 -25 -15 -6 6
-17 8 -24 5 -9 -3 -14 2 -15 13 -1 16 -2 16 -6 3 -5 -19 -40 -32 -49 -18 -3 5
-12 5 -23 0 -10 -6 -23 -6 -32 0 -11 7 -8 9 11 9 24 1 24 1 5 12 -29 16 -29
16 -15 33 14 17 26 19 35 5z m313 -28 c2 -7 -5 -12 -15 -13 -17 0 -17 -1 1 -8
14 -5 16 -10 8 -15 -16 -10 -32 1 -32 23 0 31 28 41 38 13z"/>
<path d="M5320 3610 c0 -5 5 -10 10 -10 6 0 10 5 10 10 0 6 -4 10 -10 10 -5 0
-10 -4 -10 -10z"/>
<path d="M6611 3658 c1 -24 3 -36 6 -27 2 10 13 19 24 22 28 7 21 41 -9 45
-20 3 -22 -1 -21 -40z m39 17 c0 -8 -7 -15 -15 -15 -8 0 -15 7 -15 15 0 8 7
15 15 15 8 0 15 -7 15 -15z"/>
<path d="M7173 3660 c0 -25 2 -35 4 -22 2 12 2 32 0 45 -2 12 -4 2 -4 -23z"/>
<path d="M6933 3655 c0 -22 2 -30 4 -17 2 12 2 30 0 40 -3 9 -5 -1 -4 -23z"/>
<path d="M6688 3651 c-10 -10 -18 -22 -18 -27 0 -5 5 -2 10 6 9 13 11 13 20 0
8 -12 10 -9 10 13 0 31 0 31 -22 8z"/>
<path d="M6730 3645 c0 -14 2 -25 4 -25 2 0 6 11 8 25 3 14 1 25 -3 25 -5 0
-9 -11 -9 -25z"/>
<path d="M6794 3661 c3 -5 -1 -11 -9 -15 -8 -3 -15 -11 -14 -18 0 -10 2 -10 6
0 2 6 9 12 14 12 6 0 7 -4 4 -10 -3 -5 -1 -10 4 -10 6 0 11 11 11 25 0 14 -5
25 -11 25 -5 0 -8 -4 -5 -9z"/>
<path d="M6823 3654 c-3 -8 -2 -19 3 -24 5 -5 9 1 9 16 0 28 -3 30 -12 8z"/>
<path d="M6877 3663 c-4 -3 -7 -16 -6 -27 0 -12 3 -15 6 -8 2 6 11 12 19 12 8
0 14 8 13 18 0 10 -3 12 -6 5 -2 -7 -9 -13 -14 -13 -6 0 -7 5 -4 10 7 11 2 13
-8 3z"/>
<path d="M6994 3662 c3 -6 -2 -13 -11 -15 -17 -4 -17 -5 0 -6 10 0 15 -5 12
-11 -3 -5 -1 -10 4 -10 15 0 14 37 -1 46 -6 4 -8 3 -4 -4z"/>
<path d="M7020 3645 c0 -14 2 -25 4 -25 2 0 6 11 8 25 3 14 1 25 -3 25 -5 0
-9 -11 -9 -25z"/>
<path d="M7050 3645 c0 -14 2 -25 4 -25 2 0 6 11 8 25 3 14 1 25 -3 25 -5 0
-9 -11 -9 -25z"/>
<path d="M7110 3645 c0 -14 3 -25 8 -25 4 0 7 11 7 25 0 14 -3 25 -7 25 -5 0
-8 -11 -8 -25z"/>
<path d="M6190 3548 c0 -32 3 -38 13 -30 12 10 41 11 51 1 3 -3 33 -4 68 -2
40 1 58 -1 49 -7 -8 -5 -27 -7 -43 -5 -15 2 -28 -1 -28 -6 0 -17 140 -7 150
11 8 13 9 13 10 -2 0 -10 -9 -23 -20 -30 -27 -17 -25 -27 3 -21 12 3 18 1 12
-4 -5 -4 -10 -17 -10 -27 0 -11 -8 -20 -17 -22 -10 -1 -18 2 -18 7 0 5 5 9 10
9 6 0 4 13 -5 30 -12 24 -22 30 -48 30 -22 0 -28 -3 -18 -9 10 -6 10 -10 1
-16 -9 -6 -9 -9 0 -15 8 -5 3 -10 -14 -14 -15 -4 -24 -11 -21 -16 4 -6 -1 -13
-9 -16 -36 -14 1 -25 80 -23 84 2 84 2 84 28 0 14 3 63 7 109 4 58 2 82 -6 82
-6 0 -11 -7 -11 -15 0 -8 -4 -15 -10 -15 -5 0 -10 6 -10 13 0 11 -28 14 -125
15 l-125 0 0 -40z m240 -27 c0 -14 -29 -21 -36 -9 -4 6 -3 8 4 4 6 -3 13 -2
17 4 8 12 15 13 15 1z"/>
<path d="M1246 3562 c-2 -4 4 -8 14 -8 10 0 16 4 14 8 -3 4 -9 8 -14 8 -5 0
-11 -4 -14 -8z"/>
<path d="M1307 3563 c-2 -5 -1 -19 4 -33 7 -23 7 -23 8 8 1 31 -3 40 -12 25z"/>
<path d="M1250 3525 c-10 -13 -9 -15 11 -14 13 0 18 3 11 6 -6 2 -10 9 -6 14
9 15 -2 10 -16 -6z"/>
<path d="M3480 3511 c0 -12 9 -21 26 -25 35 -9 38 -4 14 22 -25 27 -40 28 -40
3z"/>
<path d="M6662 3510 c0 -14 2 -19 5 -12 2 6 2 18 0 25 -3 6 -5 1 -5 -13z"/>
<path d="M6752 3505 c0 -16 2 -22 5 -12 2 9 2 23 0 30 -3 6 -5 -1 -5 -18z"/>
<path d="M6270 3500 c-9 -6 -10 -10 -3 -10 6 0 15 5 18 10 8 12 4 12 -15 0z"/>
<path d="M7622 3405 c0 -16 2 -22 5 -12 2 9 2 23 0 30 -3 6 -5 -1 -5 -18z"/>
<path d="M6741 3394 c0 -11 3 -14 6 -6 3 7 2 16 -1 19 -3 4 -6 -2 -5 -13z"/>
<path d="M6901 3394 c0 -11 3 -14 6 -6 3 7 2 16 -1 19 -3 4 -6 -2 -5 -13z"/>
<path d="M7231 3394 c0 -11 3 -14 6 -6 3 7 2 16 -1 19 -3 4 -6 -2 -5 -13z"/>
<path d="M7251 3394 c0 -11 3 -14 6 -6 3 7 2 16 -1 19 -3 4 -6 -2 -5 -13z"/>
<path d="M7271 3394 c0 -11 3 -14 6 -6 3 7 2 16 -1 19 -3 4 -6 -2 -5 -13z"/>
<path d="M7311 3394 c0 -11 3 -14 6 -6 3 7 2 16 -1 19 -3 4 -6 -2 -5 -13z"/>
<path d="M6861 3294 c0 -11 3 -14 6 -6 3 7 2 16 -1 19 -3 4 -6 -2 -5 -13z"/>
<path d="M7352 3290 c0 -14 2 -19 5 -12 2 6 2 18 0 25 -3 6 -5 1 -5 -13z"/>
<path d="M3630 3279 l-35 -19 62 0 c56 0 61 2 56 20 -7 25 -37 25 -83 -1z"/>
<path d="M7451 3284 c0 -11 3 -14 6 -6 3 7 2 16 -1 19 -3 4 -6 -2 -5 -13z"/>
<path d="M7331 3274 c0 -11 3 -14 6 -6 3 7 2 16 -1 19 -3 4 -6 -2 -5 -13z"/>
<path d="M1259 3248 c4 -28 6 -29 9 -9 2 13 0 27 -5 32 -6 6 -7 -3 -4 -23z"/>
<path d="M1290 3251 c0 -23 4 -31 18 -30 10 0 12 3 5 6 -7 2 -13 9 -13 14 0 6
5 7 10 4 15 -9 12 4 -5 21 -13 14 -15 12 -15 -15z"/>
<path d="M8082 3074 c6 -88 70 -88 76 0 l3 46 -41 0 -41 0 3 -46z"/>
<path d="M3453 3065 c-3 -9 -3 -19 1 -22 3 -4 6 1 6 10 0 8 8 18 18 20 16 4
16 5 -1 6 -10 0 -20 -6 -24 -14z"/>
<path d="M3770 3041 c0 -17 4 -32 8 -35 4 -2 6 11 4 30 -5 42 -12 45 -12 5z"/>
<path d="M3552 3025 c0 -16 2 -22 5 -12 2 9 2 23 0 30 -3 6 -5 -1 -5 -18z"/>
<path d="M3633 3034 c-3 -8 -2 -19 3 -24 5 -5 9 1 9 16 0 28 -3 30 -12 8z"/>
<path d="M3745 3029 c6 -30 15 -37 15 -11 0 11 -4 23 -9 27 -6 3 -8 -4 -6 -16z"/>
<path d="M3914 3024 c0 -13 4 -24 8 -24 4 0 8 9 8 19 0 11 -4 22 -8 25 -4 2
-8 -6 -8 -20z"/>
<path d="M4013 3034 c-3 -8 -2 -19 3 -24 5 -5 9 1 9 16 0 28 -3 30 -12 8z"/>
<path d="M4112 3025 c0 -16 2 -22 5 -12 2 9 2 23 0 30 -3 6 -5 -1 -5 -18z"/>
<path d="M3479 3031 c8 -5 10 -14 6 -22 -6 -11 -5 -11 5 -2 14 12 6 33 -13 33
-8 0 -7 -3 2 -9z"/>
<path d="M4047 3021 c-4 -17 -3 -21 5 -13 5 5 8 16 6 23 -3 8 -7 3 -11 -10z"/>
<path d="M3715 3021 c-3 -5 -2 -12 3 -15 5 -3 9 1 9 9 0 17 -3 19 -12 6z"/>
<path d="M3845 3019 c-4 -6 -5 -12 -2 -15 2 -3 7 2 10 11 7 17 1 20 -8 4z"/>
<path d="M6614 3019 c-3 -6 -2 -15 3 -20 5 -5 9 -1 9 11 0 23 -2 24 -12 9z"/>
<path d="M6942 2988 c2 -17 9 -33 16 -34 7 -1 8 0 2 3 -14 7 -13 40 2 45 7 3
5 7 -6 11 -15 6 -17 2 -14 -25z"/>
<path d="M7038 3015 c-6 -7 3 -65 11 -65 7 0 7 58 -1 65 -2 3 -7 3 -10 0z"/>
<path d="M6672 2980 c0 -19 2 -27 5 -17 2 9 2 25 0 35 -3 9 -5 1 -5 -18z"/>
<path d="M6704 2995 c-3 -8 -4 -22 -1 -32 3 -12 5 -8 6 10 0 15 5 27 10 27 5
0 12 -12 14 -27 l4 -28 2 28 c1 34 18 36 24 2 4 -23 4 -23 3 2 -1 23 -6 28
-29 30 -16 1 -30 -4 -33 -12z"/>
<path d="M6786 2990 c9 -37 21 -45 29 -20 4 12 4 24 1 27 -3 4 -6 -2 -6 -13
-1 -16 -3 -15 -16 6 l-15 25 7 -25z"/>
<path d="M6853 3004 c9 -3 17 -14 17 -24 0 -10 -8 -21 -17 -23 -13 -3 -12 -5
5 -6 20 -1 23 3 20 26 -2 19 -9 28 -23 30 -16 1 -16 1 -2 -3z"/>
<path d="M6895 2999 c-11 -16 -1 -19 13 -3 7 8 8 14 3 14 -5 0 -13 -5 -16 -11z"/>
<path d="M7000 3003 c12 -6 13 -43 1 -43 -5 0 -12 5 -14 10 -3 6 -4 5 -3 -2 1
-7 10 -15 20 -16 14 -3 17 2 14 24 -2 15 -9 29 -16 30 -7 1 -8 0 -2 -3z"/>
<path d="M7082 2980 c0 -19 2 -27 5 -17 2 9 2 25 0 35 -3 9 -5 1 -5 -18z"/>
<path d="M7102 2980 c0 -19 2 -27 5 -17 2 9 2 25 0 35 -3 9 -5 1 -5 -18z"/>
<path d="M7126 2995 c4 -8 8 -15 10 -15 2 0 4 7 4 15 0 8 -4 15 -10 15 -5 0
-7 -7 -4 -15z"/>
<path d="M1258 2963 c5 -21 7 -23 10 -9 2 10 0 22 -6 28 -6 6 -7 0 -4 -19z"/>
<path d="M6645 2978 c6 -14 2 -18 -16 -19 -19 -1 -20 -2 -5 -6 25 -7 44 13 27
30 -10 10 -11 9 -6 -5z"/>
<path d="M6915 2971 c3 -5 -2 -12 -10 -14 -12 -4 -12 -5 1 -3 19 1 32 26 14
26 -6 0 -9 -4 -5 -9z"/>
<path d="M6477 2943 c-4 -3 -7 -29 -7 -56 l0 -50 -150 7 -150 7 0 -46 c0 -25
5 -45 11 -45 5 0 7 6 3 13 -6 9 -5 9 8 0 8 -7 45 -14 81 -15 53 -1 67 -5 68
-17 0 -9 3 -11 5 -5 3 6 28 9 65 6 40 -3 64 -1 68 7 8 12 15 201 8 201 -2 0
-7 -3 -10 -7z m-100 -145 c-3 -8 -6 -5 -6 6 -1 11 2 17 5 13 3 -3 4 -12 1 -19z
m59 10 c-4 6 -2 12 3 12 6 0 11 -7 11 -15 0 -16 -35 -21 -44 -6 -10 15 7 21
22 8 13 -9 14 -9 8 1z m12 -46 c6 -18 -15 -14 -22 4 -4 10 -1 14 6 12 6 -2 14
-10 16 -16z"/>
<path d="M6280 2872 c0 -5 7 -9 15 -9 8 0 12 4 9 9 -3 4 -9 8 -15 8 -5 0 -9
-4 -9 -8z"/>
<path d="M6901 2844 c0 -11 3 -14 6 -6 3 7 2 16 -1 19 -3 4 -6 -2 -5 -13z"/>
<path d="M7181 2844 c0 -11 3 -14 6 -6 3 7 2 16 -1 19 -3 4 -6 -2 -5 -13z"/>
<path d="M7331 2844 c0 -11 3 -14 6 -6 3 7 2 16 -1 19 -3 4 -6 -2 -5 -13z"/>
<path d="M7401 2844 c0 -11 3 -14 6 -6 3 7 2 16 -1 19 -3 4 -6 -2 -5 -13z"/>
<path d="M6911 2744 c0 -11 3 -14 6 -6 3 7 2 16 -1 19 -3 4 -6 -2 -5 -13z"/>
<path d="M7270 2741 c0 -11 4 -22 9 -25 4 -3 6 6 3 19 -5 30 -12 33 -12 6z"/>
<path d="M7732 2735 c0 -16 2 -22 5 -12 2 9 2 23 0 30 -3 6 -5 -1 -5 -18z"/>
<path d="M6672 2730 c0 -14 2 -19 5 -12 2 6 2 18 0 25 -3 6 -5 1 -5 -13z"/>
<path d="M6651 2724 c0 -11 3 -14 6 -6 3 7 2 16 -1 19 -3 4 -6 -2 -5 -13z"/>
<path d="M6981 2724 c0 -11 3 -14 6 -6 3 7 2 16 -1 19 -3 4 -6 -2 -5 -13z"/>
<path d="M7681 2724 c0 -11 3 -14 6 -6 3 7 2 16 -1 19 -3 4 -6 -2 -5 -13z"/>
<path d="M1260 2669 c0 -5 5 -7 10 -4 6 3 10 8 10 11 0 2 -4 4 -10 4 -5 0 -10
-5 -10 -11z"/>
<path d="M1287 2661 c-4 -17 -3 -21 5 -13 5 5 8 16 6 23 -3 8 -7 3 -11 -10z"/>
<path d="M3846 2652 c-10 -31 8 -107 27 -110 12 -3 17 3 17 22 0 14 5 36 11
50 9 20 9 29 -1 41 -17 20 -47 19 -54 -3z"/>
<path d="M6642 2630 c0 -14 2 -19 5 -12 2 6 2 18 0 25 -3 6 -5 1 -5 -13z"/>
<path d="M7661 2624 c0 -11 3 -14 6 -6 3 7 2 16 -1 19 -3 4 -6 -2 -5 -13z"/>
<path d="M7191 2614 c0 -11 3 -14 6 -6 3 7 2 16 -1 19 -3 4 -6 -2 -5 -13z"/>
<path d="M3796 2544 c-23 -23 -20 -43 10 -54 32 -13 85 -13 66 -1 -8 4 -12 10
-11 12 4 6 -33 59 -41 59 -5 0 -16 -7 -24 -16z m40 -15 c8 -14 -11 -33 -25
-25 -11 7 -4 36 9 36 5 0 12 -5 16 -11z"/>
<path d="M3910 2554 c0 -4 8 -12 17 -19 15 -11 15 -15 3 -30 -13 -15 -12 -17
5 -14 26 5 32 39 9 56 -19 14 -34 17 -34 7z"/>
<path d="M2665 2540 c4 -6 -10 -10 -35 -10 -68 0 -80 -12 -80 -80 l0 -60 65 0
65 0 0 80 c0 50 -4 80 -11 80 -5 0 -7 -4 -4 -10z"/>
<path d="M3125 2513 c-48 -5 -55 -14 -55 -75 l0 -48 65 0 65 0 0 65 c0 56 -2
65 -17 63 -10 -1 -36 -3 -58 -5z"/>
<path d="M3880 2510 c0 -5 7 -10 15 -10 8 0 15 5 15 10 0 6 -7 10 -15 10 -8 0
-15 -4 -15 -10z"/>
<path d="M1866 2503 c-4 -4 -12 -9 -17 -9 -5 -1 -12 -3 -16 -4 -16 -5 -29 -7
-50 -8 -20 -2 -23 -7 -23 -47 l0 -45 70 0 70 0 0 56 c0 31 -4 53 -9 50 -5 -4
-11 -1 -13 5 -2 5 -7 7 -12 2z"/>
<path d="M2916 2492 c-4 -4 -24 -8 -44 -8 -20 -1 -45 -2 -54 -3 -14 -1 -18
-10 -18 -46 l0 -45 70 0 70 0 0 49 c0 48 -9 68 -24 53z"/>
<path d="M2364 2467 c-10 -6 -28 -12 -39 -13 -11 -1 -23 -3 -27 -3 -5 -1 -8
-14 -8 -31 l0 -30 66 0 65 0 -3 42 c-3 44 -19 55 -54 35z"/>
<path d="M2088 2443 c-9 -11 -13 -11 -19 -1 -7 10 -9 10 -9 -1 0 -8 -3 -11 -7
-8 -9 9 -33 -12 -33 -29 0 -11 17 -14 70 -14 l70 0 0 34 c0 32 -2 35 -30 34
-17 -1 -35 -7 -42 -15z"/>
<path d="M8080 2405 c0 -52 24 -74 60 -55 15 8 20 21 20 55 l0 45 -40 0 -40 0
0 -45z"/>
<path d="M1289 2382 c-3 -20 -2 -29 4 -23 5 5 7 19 5 32 -3 20 -5 19 -9 -9z"/>
<path d="M1262 2380 c0 -14 2 -19 5 -12 2 6 2 18 0 25 -3 6 -5 1 -5 -13z"/>
<path d="M6610 2318 c0 -49 5 -47 13 5 3 20 2 37 -4 37 -5 0 -9 -19 -9 -42z"/>
<path d="M6667 2323 c8 -52 13 -54 13 -5 0 23 -4 42 -9 42 -6 0 -7 -17 -4 -37z"/>
<path d="M6750 2340 c0 -6 7 -10 15 -10 8 0 15 2 15 4 0 2 -7 6 -15 10 -8 3
-15 1 -15 -4z"/>
<path d="M3624 2325 c-10 -24 4 -45 28 -44 l23 2 -22 4 c-14 3 -23 12 -23 23
0 11 9 20 23 23 l22 4 -23 2 c-12 0 -25 -6 -28 -14z"/>
<path d="M3820 2331 c0 -5 -9 -11 -21 -14 -26 -7 -20 -31 9 -35 19 -3 22 1 22
27 0 17 -2 31 -5 31 -3 0 -5 -4 -5 -9z m0 -31 c0 -5 -7 -10 -15 -10 -8 0 -15
5 -15 10 0 6 7 10 15 10 8 0 15 -4 15 -10z"/>
<path d="M3930 2310 c0 -16 4 -30 8 -30 5 0 7 14 4 30 -2 17 -6 30 -8 30 -2 0
-4 -13 -4 -30z"/>
<path d="M4512 2313 c2 -22 8 -28 28 -28 20 0 25 5 25 25 0 20 -6 26 -28 28
-26 3 -28 1 -25 -25z m48 -3 c0 -11 -7 -20 -15 -20 -8 0 -15 9 -15 20 0 11 7
20 15 20 8 0 15 -9 15 -20z"/>
<path d="M4930 2316 c0 -14 4 -27 8 -30 5 -3 6 8 4 25 -5 35 -12 38 -12 5z"/>
<path d="M6696 2324 c-7 -18 9 -44 27 -44 6 0 3 6 -6 13 -12 8 -14 16 -7 27 9
13 11 13 21 0 9 -13 10 -13 6 0 -5 21 -33 24 -41 4z"/>
<path d="M6798 2333 c7 -3 16 -2 19 1 4 3 -2 6 -13 5 -11 0 -14 -3 -6 -6z"/>
<path d="M6830 2331 c0 -6 7 -8 15 -5 11 4 15 0 15 -16 0 -17 -4 -21 -17 -15
-15 5 -16 4 -5 -6 16 -17 35 1 30 27 -3 20 -38 33 -38 15z"/>
<path d="M6890 2315 c0 -14 2 -25 4 -25 2 0 6 11 8 25 3 14 1 25 -3 25 -5 0
-9 -11 -9 -25z"/>
<path d="M6931 2312 c2 -23 2 -24 6 -4 6 31 21 28 26 -5 l4 -28 2 28 c1 34 18
36 24 2 4 -23 4 -23 3 2 -1 24 -6 28 -33 30 -30 3 -33 0 -32 -25z"/>
<path d="M7042 2310 c0 -19 2 -27 5 -17 2 9 2 25 0 35 -3 9 -5 1 -5 -18z"/>
<path d="M7068 2310 c2 -16 6 -30 8 -30 2 0 4 14 4 30 0 17 -4 30 -8 30 -5 0
-7 -13 -4 -30z"/>
<path d="M4838 2324 c-8 -7 2 -44 11 -44 8 0 8 37 0 45 -3 3 -8 2 -11 -1z"/>
<path d="M6646 2313 c-6 -14 -5 -15 5 -6 7 7 10 15 7 18 -3 3 -9 -2 -12 -12z"/>
<path d="M7022 2310 c0 -14 2 -19 5 -12 2 6 2 18 0 25 -3 6 -5 1 -5 -13z"/>
<path d="M1501 2310 c0 -8 6 -23 13 -33 12 -16 14 -16 20 -2 3 9 10 13 16 10
6 -3 7 1 4 10 -6 14 -8 14 -19 -2 -13 -17 -14 -16 -24 7 -5 14 -10 18 -10 10z"/>
<path d="M1776 2312 c7 -4 14 -18 16 -32 3 -23 4 -22 9 8 5 27 3 32 -15 32
-13 0 -17 -3 -10 -8z"/>
<path d="M2041 2315 c0 -5 6 -21 14 -35 8 -14 14 -20 14 -15 0 6 -6 21 -14 35
-8 14 -14 21 -14 15z"/>
<path d="M2162 2290 c0 -19 2 -27 5 -17 2 9 2 25 0 35 -3 9 -5 1 -5 -18z"/>
<path d="M2299 2288 c5 -30 6 -31 9 -8 2 14 9 28 16 32 7 5 3 8 -10 8 -18 0
-20 -5 -15 -32z"/>
<path d="M2571 2288 c2 -30 2 -30 6 -6 2 15 12 29 21 31 12 3 10 5 -5 6 -20 1
-23 -4 -22 -31z"/>
<path d="M2817 2313 c-9 -8 12 -33 27 -33 6 0 2 6 -9 12 -19 11 -19 11 0 19
15 6 16 8 4 8 -9 1 -19 -2 -22 -6z"/>
<path d="M3075 2309 c-4 -6 -4 -13 -1 -16 3 -4 6 -1 6 6 0 8 6 11 16 7 8 -3
12 -2 9 4 -8 13 -22 13 -30 -1z"/>
<path d="M3714 2299 c0 -10 4 -19 8 -19 4 0 8 6 8 14 0 8 -4 17 -8 20 -4 2 -8
-4 -8 -15z"/>
<path d="M3744 2300 c0 -11 3 -20 7 -20 4 0 9 9 12 20 3 12 0 20 -7 20 -6 0
-12 -9 -12 -20z"/>
<path d="M3852 2300 c0 -14 2 -19 5 -12 2 6 2 18 0 25 -3 6 -5 1 -5 -13z"/>
<path d="M3870 2305 c0 -20 28 -31 43 -16 8 8 8 14 -2 24 -10 10 -11 9 -6 -5
5 -13 2 -18 -10 -18 -11 0 -15 5 -11 15 3 8 1 15 -4 15 -6 0 -10 -7 -10 -15z"/>
<path d="M3965 2310 c-8 -13 3 -30 20 -30 20 0 29 20 16 33 -9 9 -11 8 -6 -5
5 -13 2 -18 -10 -18 -11 0 -15 5 -11 15 6 17 0 20 -9 5z"/>
<path d="M4020 2305 c0 -9 7 -18 16 -22 13 -5 13 -8 2 -15 -9 -7 -8 -8 7 -6
13 2 21 12 23 31 2 15 -1 27 -7 27 -6 0 -8 -7 -5 -15 4 -10 0 -15 -11 -15 -11
0 -15 5 -11 15 3 8 1 15 -4 15 -6 0 -10 -7 -10 -15z"/>
<path d="M4088 2289 c5 -33 16 -28 26 11 3 14 3 19 0 12 -4 -9 -10 -10 -18 -3
-10 8 -11 3 -8 -20z"/>
<path d="M4592 2303 c2 -10 12 -19 23 -20 17 -2 17 -1 2 3 -11 4 -16 12 -13
20 3 8 1 14 -5 14 -6 0 -9 -8 -7 -17z"/>
<path d="M4650 2300 c0 -11 2 -20 4 -20 2 0 6 9 9 20 3 11 1 20 -4 20 -5 0 -9
-9 -9 -20z"/>
<path d="M4691 2298 c1 -17 2 -19 6 -5 2 9 8 17 13 17 5 0 11 -8 13 -17 4 -17
5 -17 6 0 0 9 5 17 10 17 5 0 12 -8 14 -17 4 -14 5 -12 6 5 1 19 -4 22 -34 22
-30 0 -35 -3 -34 -22z"/>
<path d="M4803 2300 c1 -11 5 -20 9 -20 4 0 8 9 8 20 0 11 -4 20 -9 20 -6 0
-9 -9 -8 -20z"/>
<path d="M4875 2310 c-8 -13 3 -30 20 -30 20 0 29 20 16 33 -9 9 -11 8 -6 -5
5 -13 2 -18 -10 -18 -11 0 -15 5 -11 15 6 17 0 20 -9 5z"/>
<path d="M4965 2310 c-9 -15 4 -30 26 -30 12 0 19 7 19 20 0 11 -4 20 -10 20
-5 0 -7 -7 -4 -15 4 -10 0 -15 -11 -15 -11 0 -15 5 -11 15 6 17 0 20 -9 5z"/>
<path d="M5025 2310 c-8 -13 3 -30 18 -30 8 0 7 3 -2 9 -7 5 -10 14 -7 20 4 6
5 11 2 11 -3 0 -8 -4 -11 -10z"/>
<path d="M5057 2296 c3 -15 0 -26 -9 -29 -9 -3 -9 -4 2 -3 16 1 28 56 12 56
-5 0 -7 -11 -5 -24z"/>
<path d="M5091 2297 c7 -15 13 -26 14 -25 1 2 8 14 15 28 12 22 11 23 -2 13
-11 -10 -17 -10 -27 0 -10 10 -10 7 0 -16z"/>
<path d="M2912 2285 c0 -16 2 -22 5 -12 2 9 2 23 0 30 -3 6 -5 -1 -5 -18z"/>
<path d="M1594 2280 c0 -13 4 -16 10 -10 7 7 7 13 0 20 -6 6 -10 3 -10 -10z"/>
<path d="M1642 2280 c0 -14 2 -19 5 -12 2 6 2 18 0 25 -3 6 -5 1 -5 -13z"/>
<path d="M1822 2280 c0 -14 2 -19 5 -12 2 6 2 18 0 25 -3 6 -5 1 -5 -13z"/>
<path d="M1864 2289 c-3 -6 -2 -15 3 -20 5 -5 9 -1 10 11 2 22 -2 25 -13 9z"/>
<path d="M2020 2288 c0 -9 5 -20 10 -23 13 -8 13 5 0 25 -8 13 -10 13 -10 -2z"/>
<path d="M2092 2280 c0 -14 2 -19 5 -12 2 6 2 18 0 25 -3 6 -5 1 -5 -13z"/>
<path d="M2362 2280 c0 -14 2 -19 5 -12 2 6 2 18 0 25 -3 6 -5 1 -5 -13z"/>
<path d="M2384 2280 c1 -8 9 -16 19 -18 12 -3 17 3 16 20 -1 17 -3 18 -6 6 -5
-21 -20 -24 -26 -5 -2 7 -3 6 -3 -3z"/>
<path d="M2889 2293 c-1 -5 -1 -12 0 -17 1 -5 -5 -6 -14 -2 -9 3 -13 2 -10 -4
11 -18 35 -11 35 10 0 19 -9 29 -11 13z"/>
<path d="M3142 2280 c0 -14 2 -19 5 -12 2 6 2 18 0 25 -3 6 -5 1 -5 -13z"/>
<path d="M3162 2280 c0 -14 2 -19 5 -12 2 6 2 18 0 25 -3 6 -5 1 -5 -13z"/>
<path d="M3192 2280 c0 -14 2 -19 5 -12 2 6 2 18 0 25 -3 6 -5 1 -5 -13z"/>
<path d="M2130 2281 c0 -6 4 -13 10 -16 6 -3 7 1 4 9 -7 18 -14 21 -14 7z"/>
<path d="M3093 2275 c0 -8 4 -12 9 -9 5 3 6 10 3 15 -9 13 -12 11 -12 -6z"/>
<path d="M6523 2230 c0 -25 2 -35 4 -22 2 12 2 32 0 45 -2 12 -4 2 -4 -23z"/>
<path d="M6852 2185 c0 -16 2 -22 5 -12 2 9 2 23 0 30 -3 6 -5 -1 -5 -18z"/>
<path d="M6230 2180 c0 -10 10 -15 30 -15 17 0 30 5 30 10 0 6 5 3 10 -5 9
-13 10 -13 10 0 0 12 2 12 9 1 6 -9 10 -10 16 -2 5 9 10 9 21 0 11 -9 14 -8
14 4 0 18 -34 26 -72 16 -16 -4 -28 -4 -28 0 0 3 -9 7 -20 7 -11 0 -20 -7 -20
-16z"/>
<path d="M6380 2181 c0 -17 18 -21 24 -6 3 9 0 15 -9 15 -8 0 -15 -4 -15 -9z"/>
<path d="M6417 2184 c-12 -12 -8 -24 8 -24 8 0 15 6 15 13 0 8 4 7 11 -3 9
-13 10 -13 6 0 -4 16 -29 25 -40 14z"/>
<path d="M6661 2174 c0 -11 3 -14 6 -6 3 7 2 16 -1 19 -3 4 -6 -2 -5 -13z"/>
<path d="M6831 2174 c0 -11 3 -14 6 -6 3 7 2 16 -1 19 -3 4 -6 -2 -5 -13z"/>
<path d="M6237 2130 c3 -11 7 -20 9 -20 2 0 4 9 4 20 0 11 -4 20 -9 20 -5 0
-7 -9 -4 -20z"/>
<path d="M6306 2135 c-9 -24 -9 -24 24 -22 16 1 30 7 30 14 0 7 -7 10 -16 6
-9 -3 -19 0 -24 6 -5 9 -9 8 -14 -4z"/>
<path d="M6270 2125 c-10 -12 -10 -15 4 -15 9 0 16 7 16 15 0 8 -2 15 -4 15
-2 0 -9 -7 -16 -15z"/>
<path d="M7902 2070 c0 -14 2 -19 5 -12 2 6 2 18 0 25 -3 6 -5 1 -5 -13z"/>
<path d="M7652 2060 c0 -14 2 -19 5 -12 2 6 2 18 0 25 -3 6 -5 1 -5 -13z"/>
<path d="M7691 2064 c0 -11 3 -14 6 -6 3 7 2 16 -1 19 -3 4 -6 -2 -5 -13z"/>
<path d="M7732 2060 c0 -14 2 -19 5 -12 2 6 2 18 0 25 -3 6 -5 1 -5 -13z"/>
<path d="M1660 2015 c-6 -8 -10 -22 -7 -32 4 -14 5 -13 6 5 1 13 10 26 24 32
15 6 17 9 6 9 -9 1 -22 -6 -29 -14z"/>
<path d="M1843 2018 c-5 -7 -6 -26 -2 -43 6 -28 7 -28 9 -5 1 14 3 33 5 43 4
20 1 21 -12 5z"/>
<path d="M2108 1990 c-2 -22 0 -40 4 -40 5 0 8 18 8 40 0 22 -2 40 -4 40 -2 0
-6 -18 -8 -40z"/>
<path d="M2171 1988 c1 -24 3 -36 6 -27 2 10 13 19 24 22 28 7 21 41 -9 45
-20 3 -22 -1 -21 -40z m39 17 c0 -8 -7 -15 -15 -15 -8 0 -15 7 -15 15 0 8 7
15 15 15 8 0 15 -7 15 -15z"/>
<path d="M1380 1996 c0 -26 -15 -42 -45 -48 -16 -3 -20 -11 -20 -48 l0 -45 71
-3 c81 -3 90 3 96 63 3 37 1 40 -23 43 -21 2 -28 10 -33 33 -7 38 -46 42 -46
5z m38 -19 c3 -22 8 -27 32 -27 28 0 29 -2 24 -32 -10 -57 -11 -58 -64 -58
l-50 0 0 38 c0 20 7 46 15 56 8 11 15 28 15 39 0 28 25 14 28 -16z m-68 -77
c0 -29 -4 -40 -15 -40 -11 0 -15 11 -15 40 0 29 4 40 15 40 11 0 15 -11 15
-40z"/>
<path d="M2287 2013 c-2 -5 0 -21 4 -38 7 -29 7 -29 8 8 1 35 -3 46 -12 30z"/>
<path d="M1722 1998 c-15 -15 -16 -35 -2 -43 6 -3 7 1 4 10 -4 8 -1 22 6 30
15 18 9 20 -8 3z"/>
<path d="M1903 2003 c-7 -2 -12 -17 -12 -31 1 -21 2 -23 6 -7 3 11 10 26 15
33 11 13 10 13 -9 5z"/>
<path d="M1943 2003 c-7 -3 -13 -17 -12 -31 0 -15 3 -20 6 -12 14 43 16 44 23
15 l8 -30 1 27 c1 29 -7 38 -26 31z"/>
<path d="M2044 1989 c0 -10 4 -19 8 -19 4 0 8 6 8 14 0 8 -4 17 -8 20 -4 2 -8
-4 -8 -15z"/>
<path d="M2256 1996 c4 -11 0 -16 -10 -16 -9 0 -16 -8 -16 -17 0 -15 2 -16 10
-3 9 13 11 13 20 0 8 -12 10 -9 10 12 0 15 -4 30 -10 33 -6 3 -7 -1 -4 -9z"/>
<path d="M2357 2003 c-11 -10 -8 -53 4 -53 5 0 7 5 4 10 -3 6 1 10 9 10 9 0
16 8 15 18 0 10 -3 12 -6 5 -2 -7 -9 -13 -15 -13 -6 0 -8 7 -4 15 6 16 3 19
-7 8z"/>
<path d="M2460 2001 c0 -6 5 -13 10 -16 6 -3 10 1 10 9 0 9 -4 16 -10 16 -5 0
-10 -4 -10 -9z"/>
<path d="M1748 1977 c-3 -19 -2 -25 4 -19 6 6 8 18 6 28 -3 14 -5 12 -10 -9z"/>
<path d="M1808 1975 c2 -14 6 -25 8 -25 2 0 4 11 4 25 0 14 -4 25 -9 25 -4 0
-6 -11 -3 -25z"/>
<path d="M1872 1975 c0 -16 2 -22 5 -12 2 9 2 23 0 30 -3 6 -5 -1 -5 -18z"/>
<path d="M2020 1981 c0 -11 4 -22 9 -25 4 -3 6 6 3 19 -5 30 -12 33 -12 6z"/>
<path d="M2438 1975 c2 -14 6 -25 8 -25 2 0 4 11 4 25 0 14 -4 25 -9 25 -4 0
-6 -11 -3 -25z"/>
<path d="M2500 1992 c0 -4 9 -15 20 -25 11 -9 20 -13 20 -9 0 4 -9 15 -20 25
-11 9 -20 13 -20 9z"/>
<path d="M2321 1964 c0 -11 3 -14 6 -6 3 7 2 16 -1 19 -3 4 -6 -2 -5 -13z"/>
<path d="M7062 1955 c0 -16 2 -22 5 -12 2 9 2 23 0 30 -3 6 -5 -1 -5 -18z"/>
<path d="M6916 1957 c3 -10 9 -15 12 -12 3 3 0 11 -7 18 -10 9 -11 8 -5 -6z"/>
<path d="M3453 1925 c0 -22 2 -30 4 -17 2 12 2 30 0 40 -3 9 -5 -1 -4 -23z"/>
<path d="M3492 1940 c0 -14 2 -19 5 -12 2 6 2 18 0 25 -3 6 -5 1 -5 -13z"/>
<path d="M3700 1926 c0 -19 3 -37 8 -40 4 -2 6 13 4 35 -5 48 -12 51 -12 5z"/>
<path d="M3906 1947 c3 -10 9 -15 12 -12 3 3 0 11 -7 18 -10 9 -11 8 -5 -6z"/>
<path d="M6751 1944 c0 -11 3 -14 6 -6 3 7 2 16 -1 19 -3 4 -6 -2 -5 -13z"/>
<path d="M6831 1944 c0 -11 3 -14 6 -6 3 7 2 16 -1 19 -3 4 -6 -2 -5 -13z"/>
<path d="M7201 1944 c0 -11 3 -14 6 -6 3 7 2 16 -1 19 -3 4 -6 -2 -5 -13z"/>
<path d="M7372 1940 c0 -14 2 -19 5 -12 2 6 2 18 0 25 -3 6 -5 1 -5 -13z"/>
<path d="M4058 1945 c-6 -7 2 -54 11 -59 7 -5 7 52 -1 59 -2 3 -7 3 -10 0z"/>
<path d="M3520 1925 c-11 -13 -11 -19 3 -33 20 -19 41 -5 35 24 -4 24 -22 28
-38 9z m30 -15 c0 -11 -4 -20 -9 -20 -14 0 -23 18 -16 30 10 17 25 11 25 -10z"/>
<path d="M3583 1905 c0 -22 2 -30 4 -17 2 12 2 30 0 40 -3 9 -5 -1 -4 -23z"/>
<path d="M3641 1918 c-1 -31 15 -46 32 -29 9 9 8 11 -5 6 -13 -5 -18 0 -21 22
l-4 28 -2 -27z"/>
<path d="M3748 1933 c7 -3 16 -2 19 1 4 3 -2 6 -13 5 -11 0 -14 -3 -6 -6z"/>
<path d="M3802 1931 c-8 -5 -12 -16 -10 -25 2 -12 6 -10 15 9 6 14 10 25 10
25 -1 0 -8 -4 -15 -9z"/>
<path d="M3944 1926 c-9 -24 4 -48 23 -44 12 2 18 12 18 28 0 29 -32 41 -41
16z m36 -16 c0 -11 -7 -20 -15 -20 -8 0 -15 9 -15 20 0 11 7 20 15 20 8 0 15
-9 15 -20z"/>
<path d="M4018 1933 c7 -3 16 -2 19 1 4 3 -2 6 -13 5 -11 0 -14 -3 -6 -6z"/>
<path d="M4113 1934 c18 -6 24 -39 7 -47 -6 -3 -5 -4 2 -3 22 4 16 50 -7 53
-16 1 -16 1 -2 -3z"/>
<path d="M4208 1933 c7 -3 16 -2 19 1 4 3 -2 6 -13 5 -11 0 -14 -3 -6 -6z"/>
<path d="M3864 1905 c1 -12 9 -21 21 -22 14 -1 15 0 3 3 -9 3 -19 13 -21 22
-3 12 -4 11 -3 -3z"/>
<path d="M4162 1910 c0 -14 2 -19 5 -12 2 6 2 18 0 25 -3 6 -5 1 -5 -13z"/>
<path d="M3766 1905 c4 -8 8 -15 10 -15 2 0 4 7 4 15 0 8 -4 15 -10 15 -5 0
-7 -7 -4 -15z"/>
<path d="M3911 1904 c0 -11 3 -14 6 -6 3 7 2 16 -1 19 -3 4 -6 -2 -5 -13z"/>
<path d="M3737 1889 c7 -7 15 -10 18 -7 3 3 -2 9 -12 12 -14 6 -15 5 -6 -5z"/>
<path d="M1656 1873 c7 -4 14 -17 17 -28 5 -16 5 -15 4 4 -1 14 -9 26 -17 28
-10 3 -11 2 -4 -4z"/>
<path d="M8080 1740 c0 -39 4 -52 20 -60 37 -20 60 3 60 60 l0 50 -40 0 -40 0
0 -50z"/>
<path d="M3563 1685 c0 -10 8 -15 20 -13 30 4 34 28 5 28 -16 0 -25 -6 -25
-15z"/>
<path d="M3690 1690 c0 -5 -13 -10 -28 -10 -31 0 -55 -21 -66 -57 -4 -13 -11
-23 -16 -23 -5 0 -6 -16 -3 -35 4 -26 2 -35 -8 -36 -8 -1 -3 -4 11 -8 16 -5
30 -2 39 7 12 12 16 9 28 -19 13 -31 14 -31 28 -13 8 10 15 24 15 31 0 9 7 8
26 -2 31 -16 58 -9 50 12 -9 23 3 34 25 23 15 -9 19 -22 19 -70 0 -33 4 -60
10 -60 6 0 9 35 9 85 l-2 85 -44 0 c-38 0 -45 3 -53 26 -16 42 -13 45 43 38
l52 -7 -19 22 c-15 16 -31 21 -68 21 -26 0 -48 -4 -48 -10z m-5 -60 c0 -9 -10
-15 -27 -16 -31 -1 -35 5 -16 24 16 16 43 11 43 -8z m15 -39 c0 -5 -16 -11
-35 -13 -22 -2 -35 0 -35 7 0 7 16 12 35 13 19 1 35 -2 35 -7z m-20 -41 c0
-11 -4 -20 -10 -20 -5 0 -10 9 -10 20 0 11 5 20 10 20 6 0 10 -9 10 -20z"/>
<path d="M6616 1685 c-8 -23 -8 -53 2 -58 4 -3 7 9 7 26 0 23 5 33 19 35 16 3
18 -1 14 -32 -2 -21 0 -32 5 -27 5 5 7 21 5 37 -3 33 -41 47 -52 19z"/>
<path d="M6145 1670 c-10 -11 -16 -22 -13 -25 2 -3 81 2 174 10 93 8 177 15
187 15 10 0 15 5 12 10 -4 6 -73 10 -174 10 -155 0 -169 -1 -186 -20z"/>
<path d="M6692 1645 c0 -16 2 -22 5 -12 2 9 2 23 0 30 -3 6 -5 -1 -5 -18z"/>
<path d="M6718 1645 c2 -14 6 -25 8 -25 2 0 4 11 4 25 0 14 -4 25 -9 25 -4 0
-6 -11 -3 -25z"/>
<path d="M6752 1645 c0 -16 2 -22 5 -12 2 9 2 23 0 30 -3 6 -5 -1 -5 -18z"/>
<path d="M6804 1662 c3 -6 -3 -12 -16 -15 -20 -4 -19 -4 5 -6 28 -1 36 12 15
25 -6 4 -8 3 -4 -4z"/>
<path d="M6830 1633 c0 -20 3 -34 6 -30 9 9 11 67 2 67 -4 0 -8 -16 -8 -37z"/>
<path d="M6865 1645 c0 -13 3 -21 8 -18 4 2 7 10 7 18 0 8 -3 16 -7 18 -5 3
-8 -5 -8 -18z"/>
<path d="M6890 1645 c0 -14 2 -25 4 -25 2 0 6 11 8 25 3 14 1 25 -3 25 -5 0
-9 -11 -9 -25z"/>
<path d="M6948 1651 c-10 -10 -18 -22 -18 -27 0 -5 5 -2 10 6 9 13 11 13 20 0
8 -12 10 -9 10 13 0 31 0 31 -22 8z"/>
<path d="M7002 1650 c-18 -29 -15 -38 4 -12 9 13 14 25 12 27 -2 2 -9 -5 -16
-15z"/>
<path d="M7065 1644 c0 -13 3 -24 8 -24 4 0 7 9 7 19 0 11 -3 22 -7 24 -5 3
-8 -6 -8 -19z"/>
<path d="M7101 1654 c0 -11 3 -14 6 -6 3 7 2 16 -1 19 -3 4 -6 -2 -5 -13z"/>
<path d="M7154 1662 c3 -6 -3 -12 -16 -15 -20 -4 -19 -4 5 -6 28 -1 36 12 15
25 -6 4 -8 3 -4 -4z"/>
<path d="M3984 1618 c1 -36 5 -44 22 -46 28 -4 46 20 42 55 -2 23 -8 29 -34
31 -31 3 -31 2 -30 -40z m51 -3 c0 -20 -6 -31 -17 -33 -15 -3 -18 4 -18 33 0
29 3 36 18 33 11 -2 17 -13 17 -33z"/>
<path d="M4071 1613 c1 -26 4 -38 6 -25 2 12 10 22 17 22 7 0 18 -10 23 -22 9
-20 11 -16 9 22 -1 41 -3 45 -28 48 -27 3 -28 2 -27 -45z m49 22 c0 -8 -9 -15
-20 -15 -11 0 -20 7 -20 15 0 8 9 15 20 15 11 0 20 -7 20 -15z"/>
<path d="M4185 1650 c-8 -13 13 -40 31 -40 22 0 16 -28 -6 -33 -17 -4 -17 -4
2 -3 33 2 35 34 4 46 -34 12 -33 28 2 33 l27 4 -27 2 c-15 0 -30 -4 -33 -9z"/>
<path d="M4321 1623 c-1 -23 3 -44 7 -47 4 -2 6 12 4 32 -5 56 -10 62 -11 15z"/>
<path d="M4568 1653 c6 -2 12 -21 13 -41 0 -29 2 -33 8 -17 5 11 7 27 6 35 -1
8 5 18 14 22 10 4 2 7 -19 7 -19 -1 -29 -3 -22 -6z"/>
<path d="M4750 1615 c0 -27 2 -46 5 -43 8 8 9 77 2 85 -4 3 -7 -15 -7 -42z"/>
<path d="M4286 1626 c3 -9 1 -16 -5 -16 -6 0 -11 6 -11 13 0 6 -5 4 -11 -6
-13 -22 4 -48 30 -46 13 1 13 2 -1 6 -22 5 -24 23 -3 23 17 0 20 25 5 35 -6 3
-7 -1 -4 -9z"/>
<path d="M4459 1600 c4 -29 6 -31 9 -10 2 14 8 30 12 35 6 7 2 11 -8 11 -14 0
-17 -7 -13 -36z"/>
<path d="M4659 1628 c12 -16 11 -18 -3 -18 -9 0 -16 6 -16 13 0 8 -3 8 -9 -2
-13 -20 5 -51 27 -50 16 1 16 2 0 6 -24 6 -23 23 2 23 25 0 26 13 3 31 -16 13
-17 12 -4 -3z"/>
<path d="M4700 1630 c-13 -9 -11 -13 9 -29 23 -18 23 -19 5 -24 -18 -6 -18 -6
0 -4 27 3 31 24 6 32 -17 5 -19 10 -9 21 13 16 10 18 -11 4z"/>
<path d="M4831 1630 c-7 -4 -11 -18 -9 -31 5 -35 42 -33 46 2 3 28 -16 43 -37
29z m29 -31 c0 -10 -7 -19 -15 -19 -15 0 -21 31 -9 43 11 10 24 -3 24 -24z"/>
<path d="M4939 1633 c-11 -3 -14 -12 -10 -36 l5 -32 6 30 c3 17 12 29 19 27 7
-1 10 2 6 8 -3 5 -7 9 -8 9 -1 -1 -9 -3 -18 -6z"/>
<path d="M4421 1603 c0 -25 1 -26 9 -8 12 27 12 35 0 35 -5 0 -10 -12 -9 -27z"/>
<path d="M4502 1600 c0 -19 2 -27 5 -17 2 9 2 25 0 35 -3 9 -5 1 -5 -18z"/>
<path d="M4792 1600 c0 -19 2 -27 5 -17 2 9 2 25 0 35 -3 9 -5 1 -5 -18z"/>
<path d="M4890 1600 c0 -16 2 -30 4 -30 2 0 6 14 8 30 3 17 1 30 -4 30 -4 0
-8 -13 -8 -30z"/>
<path d="M4997 1616 c-9 -22 9 -46 32 -45 13 1 13 2 -1 6 -22 5 -24 23 -4 23
20 0 29 17 15 26 -8 4 -9 3 -5 -4 4 -7 1 -12 -8 -12 -8 0 -16 5 -18 12 -3 7
-7 5 -11 -6z"/>
<path d="M4364 1599 c-3 -6 -1 -16 5 -22 9 -9 11 -8 6 6 -4 10 -2 17 4 17 6 0
11 -4 11 -10 0 -5 5 -10 10 -10 6 0 10 7 10 15 0 17 -35 20 -46 4z"/>
<path d="M6190 1590 c0 -5 5 -10 11 -10 5 0 7 5 4 10 -3 6 -8 10 -11 10 -2 0
-4 -4 -4 -10z"/>
<path d="M6270 1590 c0 -5 7 -7 15 -4 8 4 15 8 15 10 0 2 -7 4 -15 4 -8 0 -15
-4 -15 -10z"/>
<path d="M3531 1574 c0 -11 3 -14 6 -6 3 7 2 16 -1 19 -3 4 -6 -2 -5 -13z"/>
<path d="M1650 1513 c0 -24 3 -33 9 -25 7 12 4 62 -5 62 -2 0 -4 -17 -4 -37z"/>
<path d="M1692 1530 c0 -14 2 -19 5 -12 2 6 2 18 0 25 -3 6 -5 1 -5 -13z"/>
<path d="M1787 1530 c-22 -22 -19 -53 6 -58 14 -3 17 4 17 37 0 23 -1 41 -2
40 -2 0 -11 -9 -21 -19z m13 -30 c0 -11 -4 -20 -10 -20 -5 0 -10 9 -10 20 0
11 5 20 10 20 6 0 10 -9 10 -20z"/>
<path d="M2061 1515 c0 -31 2 -36 9 -23 6 10 7 25 1 40 -9 20 -10 18 -10 -17z"/>
<path d="M2102 1530 c0 -14 2 -19 5 -12 2 6 2 18 0 25 -3 6 -5 1 -5 -13z"/>
<path d="M2362 1516 c2 -25 9 -41 18 -43 12 -4 13 -3 1 5 -8 6 -12 19 -9 30 3
11 1 26 -4 33 -6 9 -8 1 -6 -25z"/>
<path d="M2182 1509 c2 -18 9 -34 18 -36 12 -4 13 -3 1 5 -8 6 -12 19 -8 31 3
12 1 24 -5 27 -5 4 -8 -7 -6 -27z"/>
<path d="M3500 1530 c0 -5 7 -7 15 -4 8 4 15 8 15 10 0 2 -7 4 -15 4 -8 0 -15
-4 -15 -10z"/>
<path d="M6722 1520 c0 -14 2 -19 5 -12 2 6 2 18 0 25 -3 6 -5 1 -5 -13z"/>
<path d="M1714 1515 c-9 -23 3 -45 23 -44 17 1 17 2 1 6 -10 2 -18 13 -18 23
0 10 8 21 18 23 16 4 16 5 -1 6 -10 0 -20 -6 -23 -14z"/>
<path d="M1831 1498 c2 -31 2 -31 6 -5 5 33 20 36 26 5 4 -20 4 -19 6 5 1 21
-4 27 -19 27 -16 0 -20 -6 -19 -32z"/>
<path d="M1892 1500 c0 -19 2 -27 5 -17 2 9 2 25 0 35 -3 9 -5 1 -5 -18z"/>
<path d="M1920 1521 c0 -6 6 -8 14 -5 9 4 16 -3 19 -18 5 -22 5 -22 4 2 -2 24
-37 44 -37 21z"/>
<path d="M1977 1523 c-4 -3 -7 -15 -7 -25 0 -16 11 -23 33 -19 12 2 8 -17 -5
-22 -8 -2 -7 -3 2 -3 10 1 16 14 17 41 1 22 -1 31 -4 20 -8 -31 -21 -41 -29
-21 -4 11 -1 22 7 27 8 5 9 9 3 9 -6 0 -14 -3 -17 -7z"/>
<path d="M2138 1523 c7 -3 16 -2 19 1 4 3 -2 6 -13 5 -11 0 -14 -3 -6 -6z"/>
<path d="M2222 1500 c0 -19 2 -27 5 -17 2 9 2 25 0 35 -3 9 -5 1 -5 -18z"/>
<path d="M2263 1524 c9 -3 15 -10 12 -15 -4 -5 -1 -9 5 -9 19 0 5 25 -16 27
-16 2 -16 1 -1 -3z"/>
<path d="M2302 1500 c0 -19 2 -27 5 -17 2 9 2 25 0 35 -3 9 -5 1 -5 -18z"/>
<path d="M2328 1500 c2 -16 6 -30 8 -30 2 0 4 14 4 30 0 17 -4 30 -8 30 -5 0
-7 -13 -4 -30z"/>
<path d="M2405 1519 c-11 -16 -1 -19 13 -3 7 8 8 14 3 14 -5 0 -13 -5 -16 -11z"/>
<path d="M7082 1510 c0 -14 2 -19 5 -12 2 6 2 18 0 25 -3 6 -5 1 -5 -13z"/>
<path d="M2244 1494 c3 -9 6 -18 6 -20 0 -2 8 -4 18 -4 16 1 16 1 -1 11 -9 6
-15 14 -12 20 4 5 1 9 -5 9 -7 0 -9 -7 -6 -16z"/>
<path d="M2424 1492 c3 -6 -2 -13 -11 -15 -16 -4 -16 -5 -1 -6 21 -1 32 15 17
25 -7 4 -9 3 -5 -4z"/>
<path d="M3512 1488 c-14 -14 -16 -54 -3 -62 5 -3 11 11 14 31 7 42 5 47 -11
31z"/>
<path d="M2130 1476 c4 -4 16 -4 26 2 16 9 14 10 -8 9 -15 -1 -23 -6 -18 -11z"/>
<path d="M3987 1463 c-9 -9 -9 -41 1 -46 4 -3 7 8 7 24 0 16 0 29 -1 29 0 0
-4 -3 -7 -7z"/>
<path d="M4142 1440 c0 -19 2 -27 5 -17 2 9 2 25 0 35 -3 9 -5 1 -5 -18z"/>
<path d="M4231 1454 c0 -11 3 -14 6 -6 3 7 2 16 -1 19 -3 4 -6 -2 -5 -13z"/>
<path d="M4082 1430 c0 -14 2 -19 5 -12 2 6 2 18 0 25 -3 6 -5 1 -5 -13z"/>
<path d="M4061 1424 c0 -11 3 -14 6 -6 3 7 2 16 -1 19 -3 4 -6 -2 -5 -13z"/>
<path d="M7372 1400 c0 -14 2 -19 5 -12 2 6 2 18 0 25 -3 6 -5 1 -5 -13z"/>
<path d="M6661 1394 c0 -11 3 -14 6 -6 3 7 2 16 -1 19 -3 4 -6 -2 -5 -13z"/>
<path d="M7621 1394 c0 -11 3 -14 6 -6 3 7 2 16 -1 19 -3 4 -6 -2 -5 -13z"/>
<path d="M7701 1394 c0 -11 3 -14 6 -6 3 7 2 16 -1 19 -3 4 -6 -2 -5 -13z"/>
<path d="M6248 1363 c7 -3 16 -2 19 1 4 3 -2 6 -13 5 -11 0 -14 -3 -6 -6z"/>
<path d="M6460 1360 c-25 -4 -92 -15 -150 -24 -153 -24 -165 -27 -149 -37 8
-5 85 -9 172 -9 144 0 159 2 177 20 22 22 27 61 8 59 -7 -1 -33 -5 -58 -9z"/>
<path d="M6912 1295 c0 -16 2 -22 5 -12 2 9 2 23 0 30 -3 6 -5 -1 -5 -18z"/>
<path d="M6872 1275 c0 -16 2 -22 5 -12 2 9 2 23 0 30 -3 6 -5 -1 -5 -18z"/>
<path d="M7022 1280 c0 -14 2 -19 5 -12 2 6 2 18 0 25 -3 6 -5 1 -5 -13z"/>
<path d="M7371 1284 c0 -11 3 -14 6 -6 3 7 2 16 -1 19 -3 4 -6 -2 -5 -13z"/>
<path d="M7266 1273 c-6 -14 -5 -15 5 -6 7 7 10 15 7 18 -3 3 -9 -2 -12 -12z"/>
<path d="M3612 1144 c-10 -18 -3 -59 21 -114 8 -19 12 -42 10 -50 -3 -10 1 -9
11 4 8 10 13 22 11 26 -3 4 2 13 9 19 9 8 13 25 10 48 -3 22 0 39 8 44 9 6 9
11 -1 23 -18 21 -67 21 -79 0z"/>
<path d="M3987 1153 c-12 -11 -7 -81 6 -86 9 -3 11 8 8 41 -3 39 -1 44 14 39
9 -4 19 -7 21 -7 9 0 3 -59 -6 -63 -6 -3 -5 -4 2 -3 21 4 22 58 2 73 -20 14
-37 17 -47 6z"/>
<path d="M4157 1153 c-4 -3 -6 -25 -6 -47 1 -23 3 -33 6 -23 6 21 29 22 41 2
5 -11 8 -4 9 22 1 36 -9 53 -33 53 -6 0 -14 -3 -17 -7z m38 -23 c0 -8 -8 -16
-17 -18 -13 -2 -18 3 -18 18 0 15 5 20 18 18 9 -2 17 -10 17 -18z"/>
<path d="M4301 1114 c-1 -43 14 -60 38 -44 17 10 10 52 -9 57 -12 4 -12 3 -2
-5 8 -5 12 -17 10 -26 -6 -30 -23 -18 -29 21 l-6 38 -2 -41z"/>
<path d="M4441 1113 c-1 -23 3 -44 7 -47 4 -2 6 12 4 32 -5 56 -10 62 -11 15z"/>
<path d="M4521 1119 c-6 -18 -11 -33 -11 -35 0 -1 9 0 20 3 11 3 27 0 35 -7
13 -11 14 -10 9 4 -3 9 -15 16 -25 16 -21 0 -25 20 -7 38 8 8 8 12 1 12 -6 0
-16 -14 -22 -31z"/>
<path d="M4992 1110 c0 -33 2 -38 7 -21 9 35 29 37 34 4 4 -26 4 -25 6 6 1 28
-2 33 -18 28 -13 -3 -21 1 -24 12 -3 9 -5 -4 -5 -29z"/>
<path d="M4071 1096 c1 -21 3 -25 6 -11 3 11 9 25 14 31 5 7 3 11 -6 11 -10 0
-15 -10 -14 -31z"/>
<path d="M4237 1124 c-12 -12 -8 -52 6 -57 22 -8 39 8 35 34 -3 23 -27 37 -41
23z m31 -26 c-2 -13 -7 -23 -13 -23 -5 0 -11 10 -13 23 -2 15 2 22 13 22 11 0
15 -7 13 -22z"/>
<path d="M4377 1124 c-14 -14 -7 -52 11 -59 14 -5 15 -4 5 6 -17 18 -16 49 1
49 8 0 17 -8 20 -17 4 -14 4 -14 3 2 -2 20 -27 32 -40 19z"/>
<path d="M4637 1124 c-13 -13 -7 -52 9 -58 24 -9 31 -7 12 5 -21 12 -24 49 -4
49 8 0 17 -5 19 -10 3 -6 4 -5 3 2 -3 15 -28 22 -39 12z"/>
<path d="M4704 1115 c-3 -7 -4 -22 -1 -32 3 -12 5 -10 6 8 1 22 6 26 30 26 24
0 31 -5 34 -24 4 -19 4 -18 3 4 -1 24 -6 28 -34 30 -21 2 -35 -2 -38 -12z"/>
<path d="M4823 1124 c12 -4 16 -13 13 -30 -3 -13 0 -24 5 -24 6 0 9 12 7 27
-2 19 -9 28 -23 30 -16 1 -16 1 -2 -3z"/>
<path d="M4860 1128 c0 -2 6 -20 14 -42 l13 -38 12 32 c15 43 14 48 -4 24 -13
-17 -14 -17 -15 -2 0 9 -4 20 -10 23 -5 3 -10 5 -10 3z"/>
<path d="M4931 1112 c-6 -11 -6 -24 0 -33 6 -10 9 -7 9 13 0 17 6 28 18 31 16
4 16 5 0 6 -10 0 -22 -7 -27 -17z"/>
<path d="M5061 1110 c0 -15 4 -31 10 -37 19 -19 39 -3 38 31 l-1 31 -7 -30
c-3 -16 -11 -30 -16 -30 -5 0 -13 14 -16 30 -6 28 -7 28 -8 5z"/>
<path d="M3690 1089 c0 -5 5 -7 10 -4 6 3 10 8 10 11 0 2 -4 4 -10 4 -5 0 -10
-5 -10 -11z"/>
<path d="M4731 1084 c0 -11 3 -14 6 -6 3 7 2 16 -1 19 -3 4 -6 -2 -5 -13z"/>
<path d="M4804 1089 c-3 -6 -2 -15 3 -20 5 -5 9 -1 9 11 0 23 -2 24 -12 9z"/>
<path d="M1660 1065 c-6 -8 -10 -22 -7 -32 4 -14 5 -13 6 5 1 13 10 26 24 32
15 6 17 9 6 9 -9 1 -22 -6 -29 -14z"/>
<path d="M1973 1040 c0 -25 2 -35 4 -22 2 12 2 32 0 45 -2 12 -4 2 -4 -23z"/>
<path d="M2090 1064 c0 -9 -5 -12 -12 -8 -9 6 -9 3 1 -9 7 -9 11 -24 7 -32 -3
-8 -1 -15 4 -15 6 0 10 18 10 40 0 22 -2 40 -5 40 -3 0 -5 -7 -5 -16z"/>
<path d="M2141 1038 c1 -24 3 -36 6 -27 2 10 13 19 24 22 11 3 19 14 19 26 0
16 -6 21 -25 21 -23 0 -25 -4 -24 -42z m39 17 c0 -8 -7 -15 -15 -15 -8 0 -15
7 -15 15 0 8 7 15 15 15 8 0 15 -7 15 -15z"/>
<path d="M2260 1042 c0 -17 3 -33 8 -35 9 -6 8 50 -1 60 -4 3 -7 -8 -7 -25z"/>
<path d="M2440 1037 c0 -20 3 -37 8 -37 9 0 8 57 -1 67 -4 3 -7 -10 -7 -30z"/>
<path d="M1783 1053 c-7 -3 -13 -17 -12 -31 1 -26 1 -26 7 -4 4 13 12 23 17
23 6 0 13 -10 17 -23 6 -22 6 -22 7 -2 1 24 -18 44 -36 37z"/>
<path d="M1887 1054 c-11 -11 -8 -54 4 -54 5 0 7 5 4 10 -3 6 1 10 10 10 10 0
15 7 13 17 -3 18 -20 27 -31 17z m23 -14 c0 -5 -4 -10 -10 -10 -5 0 -10 5 -10
10 0 6 5 10 10 10 6 0 10 -4 10 -10z"/>
<path d="M2224 1051 c5 -7 1 -18 -10 -25 -13 -10 -14 -15 -4 -21 9 -5 11 -4 6
3 -4 7 -3 12 3 12 5 0 12 -6 14 -12 3 -7 6 -1 6 14 1 15 -4 30 -11 34 -7 5 -8
3 -4 -5z"/>
<path d="M2332 1048 c-15 -15 -15 -35 0 -44 7 -4 8 -3 4 4 -4 7 -1 12 8 12 21
0 28 16 13 29 -10 8 -17 7 -25 -1z m23 -8 c3 -5 -1 -10 -10 -10 -9 0 -13 5
-10 10 3 6 8 10 10 10 2 0 7 -4 10 -10z"/>
<path d="M2409 1028 c4 -28 6 -29 9 -9 2 13 0 27 -5 32 -6 6 -7 -3 -4 -23z"/>
<path d="M2484 1048 c-4 -6 0 -16 9 -23 9 -7 13 -16 9 -20 -4 -5 -1 -5 7 0 12
7 11 10 -3 21 -10 7 -15 17 -11 23 3 6 4 11 1 11 -3 0 -8 -5 -12 -12z"/>
<path d="M1340 1044 c0 -6 11 -21 25 -34 l25 -24 -27 -28 c-30 -32 -23 -38 9
-8 12 11 25 20 28 20 3 0 16 -9 28 -20 32 -30 40 -24 9 8 l-27 28 25 26 c35
38 31 48 -5 13 l-30 -29 -30 29 c-16 16 -30 24 -30 19z"/>
<path d="M1750 1040 c0 -5 -7 -10 -15 -10 -8 0 -15 -8 -14 -17 0 -11 3 -13 6
-5 2 6 9 12 14 12 6 0 7 -4 4 -10 -3 -5 -1 -10 4 -10 6 0 11 11 11 25 0 14 -2
25 -5 25 -3 0 -5 -4 -5 -10z"/>
<path d="M1830 1031 c0 -11 3 -22 8 -24 4 -3 7 6 7 19 0 13 -3 24 -7 24 -5 0
-8 -9 -8 -19z"/>
<path d="M2026 1033 c-6 -14 -5 -15 5 -6 7 7 10 15 7 18 -3 3 -9 -2 -12 -12z"/>
<path d="M2050 1031 c0 -11 4 -22 9 -25 4 -3 6 6 3 19 -5 30 -12 33 -12 6z"/>
<path d="M2302 1025 c0 -16 2 -22 5 -12 2 9 2 23 0 30 -3 6 -5 -1 -5 -18z"/>
<path d="M2382 1025 c0 -16 2 -22 5 -12 2 9 2 23 0 30 -3 6 -5 -1 -5 -18z"/>
<path d="M3711 994 c0 -11 3 -14 6 -6 3 7 2 16 -1 19 -3 4 -6 -2 -5 -13z"/>
<path d="M3982 930 c0 -19 2 -27 5 -17 2 9 2 25 0 35 -3 9 -5 1 -5 -18z"/>
<path d="M4322 935 c0 -16 2 -22 5 -12 2 9 2 23 0 30 -3 6 -5 -1 -5 -18z"/>
<path d="M4022 930 c0 -14 2 -19 5 -12 2 6 2 18 0 25 -3 6 -5 1 -5 -13z"/>
<path d="M4510 931 c0 -11 4 -22 9 -25 4 -3 6 6 3 19 -5 30 -12 33 -12 6z"/>
<path d="M4092 920 c0 -14 2 -19 5 -12 2 6 2 18 0 25 -3 6 -5 1 -5 -13z"/>
<path d="M4122 920 c0 -14 2 -19 5 -12 2 6 2 18 0 25 -3 6 -5 1 -5 -13z"/>
<path d="M4222 920 c0 -14 2 -19 5 -12 2 6 2 18 0 25 -3 6 -5 1 -5 -13z"/>
<path d="M1659 922 c8 -6 12 -19 8 -32 -4 -16 -3 -20 4 -13 15 15 7 45 -11 50
-12 4 -13 3 -1 -5z"/>
<path d="M4417 901 c-4 -17 -3 -21 5 -13 5 5 8 16 6 23 -3 8 -7 3 -11 -10z"/>
<path d="M4594 621 c-58 -27 -88 -73 -88 -136 0 -152 206 -211 301 -87 21 29
27 47 27 87 0 63 -27 105 -87 134 -53 26 -99 26 -153 2z m86 -96 c0 -21 5 -25
30 -25 20 0 30 -5 30 -15 0 -10 -10 -15 -30 -15 -25 0 -30 -4 -30 -25 0 -14
-4 -25 -10 -25 -5 0 -10 11 -10 25 0 21 -5 25 -30 25 -20 0 -30 5 -30 15 0 10
10 15 30 15 25 0 30 4 30 25 0 14 5 25 10 25 6 0 10 -11 10 -25z"/>
<path d="M7060 593 c-99 -51 -108 -186 -17 -242 95 -58 217 6 217 114 0 104
-110 174 -200 128z m70 -88 c0 -20 5 -25 26 -25 31 0 28 -23 -4 -28 -16 -2
-22 -10 -22 -28 0 -13 -4 -24 -10 -24 -5 0 -10 11 -10 25 0 20 -5 25 -25 25
-16 0 -25 6 -25 15 0 9 9 15 25 15 20 0 25 5 25 25 0 14 5 25 10 25 6 0 10
-11 10 -25z"/>
<path d="M2120 565 c-32 -33 -35 -41 -35 -96 0 -57 2 -62 37 -95 22 -20 48
-34 63 -34 l25 0 -17 38 c-10 20 -18 38 -19 40 -1 1 -13 -2 -28 -8 -21 -8 -27
-7 -24 2 3 7 19 18 36 24 26 8 29 13 19 22 -6 7 -14 42 -17 78 l-5 65 -35 -36z"/>
<path d="M2193 593 c-18 -7 -16 -40 3 -47 12 -5 15 -2 10 10 -4 9 -1 23 5 30
12 14 5 17 -18 7z"/>
<path d="M2230 591 c0 -5 6 -12 13 -14 9 -4 8 -8 -3 -16 -13 -9 -13 -11 1 -11
22 0 28 8 22 31 -5 19 -33 27 -33 10z"/>
<path d="M2287 552 c4 -39 2 -58 -11 -76 -21 -33 -21 -33 14 -41 17 -4 30 -13
30 -21 0 -11 -4 -12 -19 -4 -28 14 -29 14 -46 -26 -19 -46 -19 -44 5 -44 11 0
37 15 58 34 35 33 37 38 37 95 0 57 -2 63 -37 98 l-38 37 7 -52z"/>
<path d="M5228 528 c-3 -7 -23 -13 -48 -14 l-43 -1 -2 -56 -1 -57 61 0 c70 0
79 5 64 32 -7 13 -7 29 0 49 6 18 6 29 0 29 -5 0 -9 7 -9 15 0 18 -17 20 -22
3z m1 -65 c2 -1 -4 -9 -13 -18 -14 -15 -17 -15 -32 -1 -12 13 -13 18 -2 30 10
11 17 11 28 3 8 -6 17 -12 19 -14z"/>
<path d="M2190 520 c-7 -5 -9 -16 -5 -29 5 -18 13 -21 37 -19 29 3 59 30 47
43 -9 9 -67 13 -79 5z"/>
<path d="M5700 515 c-10 -12 -11 -21 -4 -33 15 -22 27 -24 49 -8 16 12 18 18
9 33 -15 24 -38 27 -54 8z m44 -10 c3 -9 -1 -18 -10 -22 -19 -7 -39 11 -30 26
10 16 33 13 40 -4z"/>
<path d="M2695 511 c-3 -6 -23 -11 -44 -11 l-39 0 1 -49 c1 -47 2 -49 31 -53
68 -7 74 -2 72 57 -2 55 -9 75 -21 56z m-18 -75 c-16 -18 -40 3 -25 22 8 9 14
9 24 1 10 -8 10 -14 1 -23z"/>
<path d="M3640 516 c0 -2 8 -10 18 -17 15 -13 16 -12 3 4 -13 16 -21 21 -21
13z"/>
<path d="M6195 480 c-21 -22 -36 -40 -32 -40 4 0 22 16 39 36 l32 37 33 -38
c18 -21 33 -34 33 -29 0 6 -15 24 -33 42 l-33 32 -39 -40z"/>
<path d="M7597 505 c-4 -10 -19 -15 -44 -15 l-38 0 -1 -50 0 -50 52 1 52 2 -3
59 c-3 62 -9 79 -18 53z m-13 -51 c4 -9 1 -23 -5 -30 -9 -11 -13 -11 -25 1
-16 15 -9 45 11 45 7 0 16 -7 19 -16z"/>
<path d="M3086 493 c-4 -9 0 -23 9 -32 13 -14 17 -14 32 1 13 14 14 20 3 32
-16 21 -36 20 -44 -1z m40 -4 c10 -17 -13 -36 -27 -22 -12 12 -4 33 11 33 5 0
12 -5 16 -11z"/>
<path d="M4106 492 c-4 -12 -18 -23 -34 -25 -17 -3 -13 -5 11 -4 32 1 41 -3
53 -23 10 -18 13 -20 14 -8 0 9 8 22 18 28 15 10 14 11 -6 7 -17 -4 -26 1 -36
21 -13 25 -14 25 -20 4z"/>
<path d="M7990 495 c-17 -20 -5 -45 20 -45 25 0 37 27 21 43 -9 9 -11 8 -6 -4
8 -21 -13 -35 -27 -21 -8 8 -7 16 2 27 7 8 10 15 7 15 -2 0 -10 -7 -17 -15z"/>
<path d="M3559 483 c-11 -13 -13 -30 -8 -58 l6 -40 2 46 c0 25 6 50 13 57 7 7
10 12 7 12 -3 0 -12 -8 -20 -17z"/>
<path d="M1744 478 c-5 -9 -18 -18 -29 -21 -11 -4 -6 -5 12 -3 23 2 34 -3 40
-16 8 -18 9 -17 27 3 18 22 18 22 -3 16 -17 -4 -24 0 -30 16 -7 18 -9 19 -17
5z"/>
<path d="M3681 464 c0 -11 3 -14 6 -6 3 7 2 16 -1 19 -3 4 -6 -2 -5 -13z"/>
<path d="M6640 470 c0 -6 -10 -15 -22 -21 -20 -8 -19 -9 8 -5 23 4 34 0 40
-13 9 -17 10 -16 27 1 16 17 16 18 -3 18 -11 0 -23 7 -26 15 -7 17 -24 20 -24
5z"/>
<path d="M5672 438 c-7 -7 -12 -19 -11 -27 0 -10 4 -7 9 7 8 18 17 22 51 22
32 0 42 -4 46 -20 3 -11 9 -20 14 -20 12 0 11 7 -1 31 -8 14 -21 19 -53 19
-24 0 -48 -5 -55 -12z"/>
<path d="M3073 433 c-7 -2 -13 -14 -12 -26 0 -22 0 -22 9 1 7 16 18 22 40 22
22 0 33 -6 40 -22 9 -23 9 -23 9 -2 1 30 -45 44 -86 27z"/>
<path d="M3682 415 c0 -16 2 -22 5 -12 2 9 2 23 0 30 -3 6 -5 -1 -5 -18z"/>
<path d="M2200 420 c0 -5 5 -21 12 -35 l12 -26 11 28 c7 15 10 31 8 36 -6 10
-43 9 -43 -3z"/>
<path d="M6248 405 c2 -14 6 -25 8 -25 2 0 4 11 4 25 0 14 -4 25 -9 25 -4 0
-6 -11 -3 -25z"/>
<path d="M7964 415 c-4 -9 -4 -19 0 -22 3 -4 6 1 6 10 0 23 76 24 83 2 4 -11
4 -10 3 2 -2 25 -83 32 -92 8z"/>
</g>
</svg>
